<?xml version="1.0" encoding="UTF-8"?>
<svg id="Layer_1" data-name="Layer 1" xmlns="http://www.w3.org/2000/svg" viewBox="0 0 400 300">
  <defs>
    <style>
      .cls-1 {
        fill: #1a2f36;
      }

      .cls-1, .cls-2, .cls-3, .cls-4, .cls-5, .cls-6, .cls-7, .cls-8, .cls-9, .cls-10, .cls-11, .cls-12, .cls-13, .cls-14 {
        stroke-width: 0px;
      }

      .cls-2 {
        fill: #006491;
      }

      .cls-3, .cls-6, .cls-15 {
        opacity: .4;
      }

      .cls-3, .cls-7 {
        fill: #fff;
      }

      .cls-4 {
        fill: #37474f;
      }

      .cls-5, .cls-6 {
        fill: #2ea3dc;
      }

      .cls-8 {
        fill: #455b64;
      }

      .cls-9 {
        fill: #dcdbdb;
      }

      .cls-10 {
        fill: #ffc829;
      }

      .cls-11 {
        opacity: .1;
      }

      .cls-11, .cls-14 {
        fill: #010101;
      }

      .cls-12 {
        fill: #263238;
      }

      .cls-13 {
        fill: #ebebeb;
      }

      .cls-14 {
        opacity: .2;
      }
    </style>
  </defs>
  <g>
    <path class="cls-13" d="M92.07,191.45c-5.95.1-14.63.31-20.51.31,0,0-.3,0-.3,0,0,0,0-.31,0-.31l-.04-8.66s0-.34,0-.34h.34c6.05.03,14.55.05,20.5.16,0,0,.19,0,.19,0v.19c-.02,2.54-.15,6.1-.19,8.66h0ZM92.07,191.45c-.07-2.54-.14-6.18-.19-8.66,0,0,.19.19.19.19-5.93.09-14.49.14-20.51.16,0,0,.34-.34.34-.34l-.04,8.66s-.31-.31-.31-.31c5.8.01,14.63.2,20.51.31h0Z"/>
    <path class="cls-13" d="M80.63,202.38c-5.95.1-14.63.31-20.51.31,0,0-.3,0-.3,0v-.31s-.04-8.66-.04-8.66v-.34s.34,0,.34,0c6.05.03,14.54.05,20.51.16,0,0,.19,0,.19,0v.19c-.02,2.54-.15,6.1-.19,8.66h0ZM80.63,202.38c-.07-2.54-.14-6.18-.19-8.66,0,0,.19.19.19.19-5.93.09-14.49.14-20.51.16,0,0,.34-.34.34-.34l-.04,8.66-.31-.31c5.8.01,14.63.2,20.51.31h0Z"/>
    <path class="cls-13" d="M80.63,14.89c-5.95.1-14.63.31-20.51.31,0,0-.3,0-.3,0v-.31s-.04-8.66-.04-8.66v-.34s.34,0,.34,0c6.05.03,14.54.05,20.51.16,0,0,.19,0,.19,0v.19c-.02,2.54-.15,6.1-.19,8.66h0ZM80.63,14.89c-.07-2.54-.14-6.18-.19-8.66,0,0,.19.19.19.19-5.93.09-14.49.14-20.51.16,0,0,.34-.34.34-.34l-.04,8.66-.31-.31c5.8.01,14.63.2,20.51.31h0Z"/>
    <path class="cls-13" d="M339.88,14.89c-5.95.1-14.63.31-20.51.31,0,0-.3,0-.3,0,0,0,0-.31,0-.31l-.04-8.66v-.34s.34,0,.34,0c6.05.03,14.54.05,20.5.16,0,0,.19,0,.19,0v.19c-.02,2.54-.15,6.1-.19,8.66h0ZM339.88,14.89c-.07-2.54-.14-6.18-.19-8.66,0,0,.19.19.19.19-5.93.09-14.49.14-20.51.16,0,0,.34-.34.34-.34l-.04,8.66-.31-.31c5.8.01,14.63.2,20.51.31h0Z"/>
    <path class="cls-13" d="M328.44,25.81c-5.95.1-14.63.31-20.51.31,0,0-.3,0-.3,0v-.31s-.04-8.66-.04-8.66v-.34s.34,0,.34,0c6.05.03,14.54.05,20.5.16,0,0,.19,0,.19,0,0,0,0,.19,0,.19-.01,2.54-.15,6.1-.19,8.66h0ZM328.44,25.81c-.07-2.54-.14-6.17-.19-8.66,0,0,.19.19.19.19-5.93.09-14.49.14-20.51.16,0,0,.34-.34.34-.34l-.04,8.66-.31-.31c5.8.01,14.63.2,20.51.31h0Z"/>
    <path class="cls-13" d="M275.92,127.18c-5.95.1-14.63.31-20.51.31,0,0-.3,0-.3,0s0-.31,0-.31l-.04-8.66v-.34s.34,0,.34,0c6.05.03,14.55.05,20.51.16,0,0,.19,0,.19,0v.19c-.02,2.54-.15,6.1-.19,8.66h0ZM275.92,127.18c-.07-2.54-.14-6.18-.19-8.66,0,0,.19.19.19.19-5.93.09-14.49.14-20.51.16,0,0,.34-.34.34-.34l-.04,8.66-.31-.31c5.8.01,14.63.2,20.51.31h0Z"/>
    <path class="cls-13" d="M264.48,138.11c-5.95.1-14.63.31-20.51.31,0,0-.3,0-.3,0,0,0,0-.31,0-.31l-.04-8.66s0-.34,0-.34h.34c6.05.03,14.54.05,20.5.16,0,0,.19,0,.19,0v.19c-.02,2.54-.15,6.1-.19,8.66h0ZM264.48,138.11c-.07-2.54-.14-6.18-.19-8.66,0,0,.19.19.19.19-5.93.09-14.49.14-20.51.16,0,0,.34-.34.34-.34l-.04,8.66s-.31-.31-.31-.31c5.8.01,14.63.2,20.51.31h0Z"/>
    <path class="cls-13" d="M253.09,127.18c-5.95.1-14.63.31-20.51.31,0,0-.3,0-.3,0v-.31s-.04-8.66-.04-8.66v-.34s.34,0,.34,0c6.05.03,14.55.05,20.51.16,0,0,.19,0,.19,0v.19c-.02,2.54-.15,6.1-.19,8.66h0ZM253.09,127.18c-.07-2.54-.14-6.18-.19-8.66,0,0,.19.19.19.19-5.93.09-14.49.14-20.51.16,0,0,.34-.34.34-.34,0,0-.04,8.66-.04,8.66l-.31-.31c5.8.01,14.63.2,20.51.31h0Z"/>
    <path class="cls-13" d="M339.88,202.38c-5.95.1-14.63.31-20.51.31,0,0-.3,0-.3,0,0,0,0-.31,0-.31l-.04-8.66v-.34s.34,0,.34,0c6.05.03,14.54.05,20.5.16,0,0,.19,0,.19,0v.19c-.02,2.54-.15,6.1-.19,8.66h0ZM339.88,202.38c-.07-2.54-.14-6.18-.19-8.66,0,0,.19.19.19.19-5.93.09-14.49.14-20.51.16,0,0,.34-.34.34-.34l-.04,8.66-.31-.31c5.8.01,14.63.2,20.51.31h0Z"/>
    <path class="cls-13" d="M165.66,40.65c-5.95.1-14.63.31-20.51.31,0,0-.3,0-.3,0,0,0,0-.31,0-.31,0,0-.04-8.66-.04-8.66,0,0,0-.34,0-.34,0,0,.34,0,.34,0,6.05.03,14.55.05,20.51.16,0,0,.19,0,.19,0,0,0,0,.19,0,.19-.01,2.54-.15,6.1-.19,8.66h0ZM165.66,40.65c-.07-2.54-.14-6.18-.19-8.66,0,0,.19.19.19.19-5.93.09-14.49.14-20.51.16,0,0,.34-.34.34-.34l-.04,8.66-.31-.31c5.8.01,14.63.2,20.51.31h0Z"/>
  </g>
  <g>
    <path class="cls-13" d="M318.81,98.06l4.04-6.51-1.99-1.23c-.59-.36-.9-1.03-.85-1.71.03-.38.04-.76.04-1.15-.01-.69.34-1.33.95-1.65l2.07-1.11-3.62-6.75-2.07,1.11c-.61.33-1.34.27-1.9-.12-.31-.22-.64-.42-.97-.6-.6-.33-.98-.96-.96-1.65l.07-2.34-7.66-.24-.07,2.35c-.02.69-.44,1.29-1.07,1.58-.17.08-.34.16-.5.25-.17.09-.33.18-.49.28-.59.36-1.32.38-1.9.01l-2.01-1.24-4.04,6.51,2,1.24c.59.36.9,1.03.84,1.71-.03.38-.05.76-.04,1.14.01.69-.34,1.33-.95,1.65l-2.07,1.11,3.62,6.75,2.07-1.11c.61-.32,1.34-.27,1.9.12.31.22.64.42.97.6.61.33.98.96.96,1.65l-.07,2.35,7.66.24.07-2.35c.02-.69.44-1.29,1.06-1.58.17-.08.34-.17.51-.26.17-.09.33-.18.49-.28.59-.36,1.32-.38,1.91-.01l2,1.24ZM312.33,93.22c-3.05,1.64-6.85.49-8.49-2.56-1.64-3.05-.49-6.86,2.56-8.5,3.05-1.64,6.86-.49,8.5,2.57,1.64,3.05.49,6.86-2.57,8.49Z"/>
    <path class="cls-13" d="M98.17,171.81l4.04-6.51-1.99-1.23c-.59-.36-.9-1.03-.85-1.71.03-.38.04-.76.04-1.15-.01-.69.34-1.33.95-1.65l2.07-1.11-3.62-6.75-2.07,1.11c-.61.33-1.34.27-1.9-.12-.31-.22-.64-.42-.97-.6-.6-.33-.98-.96-.96-1.65l.07-2.34-7.66-.24-.07,2.35c-.02.69-.44,1.29-1.07,1.58-.17.08-.34.16-.5.25-.17.09-.33.18-.49.28-.59.36-1.32.38-1.9.01l-2.01-1.24-4.04,6.51,2,1.24c.59.36.9,1.03.84,1.71-.03.38-.05.76-.04,1.14.01.69-.34,1.33-.95,1.65l-2.07,1.11,3.62,6.75,2.07-1.11c.61-.32,1.34-.27,1.9.12.31.22.64.42.97.6.61.33.98.96.96,1.65l-.07,2.35,7.66.24.07-2.35c.02-.69.44-1.29,1.06-1.58.17-.08.34-.17.51-.26.17-.09.33-.18.49-.28.59-.36,1.32-.38,1.91-.01l2,1.24ZM91.68,166.98c-3.05,1.64-6.85.49-8.49-2.56-1.64-3.05-.49-6.86,2.56-8.5,3.05-1.64,6.86-.49,8.5,2.57,1.64,3.05.49,6.86-2.57,8.49Z"/>
    <path class="cls-13" d="M176.59,47.14l-2.68-4.65-1.42.82c-.42.24-.93.22-1.34-.05-.22-.15-.46-.28-.7-.4-.43-.22-.71-.65-.71-1.13v-1.64h-5.37v1.64c0,.48-.28.92-.71,1.13-.24.12-.47.26-.7.4-.4.26-.92.29-1.34.05l-1.42-.82-2.68,4.65,1.43.82c.42.24.65.7.62,1.18,0,.13-.01.26-.01.4s0,.26.01.39c.02.48-.2.94-.62,1.18l-1.43.83,2.68,4.65,1.43-.82c.42-.24.93-.22,1.34.05.22.15.45.28.69.4.43.22.7.65.7,1.13v1.64h5.37v-1.64c0-.48.28-.91.7-1.13.24-.12.47-.26.69-.4.4-.26.92-.29,1.34-.05l1.43.82,2.68-4.65-1.43-.82c-.42-.24-.65-.7-.62-1.18,0-.13,0-.26,0-.4s0-.26,0-.4c-.02-.48.21-.94.62-1.18l1.42-.82ZM171.46,49.54c0,2.43-1.97,4.39-4.39,4.39s-4.4-1.97-4.4-4.39,1.97-4.4,4.4-4.4,4.39,1.97,4.39,4.4Z"/>
  </g>
  <g>
    <path class="cls-12" d="M89.46,182.33c-8.96,8.78-10.47,22.35-8.58,34.24.05.27.47.2.47-.06,0-2.71-.08-5.39-.07-8.06.05-.12.09-.24.14-.36,2.34-1.7,4.49-3.62,5.82-6.26,1.5-2.94,2.09-6.26,3.23-9.34.11-.29-.21-.21-.41-.06-5.45,4.02-7.19,8.35-8.75,14.13.07-3,.3-6,.95-9,1.18-5.49,3.51-10.93,7.45-15,.15-.16-.08-.39-.24-.24Z"/>
    <g>
      <path class="cls-12" d="M69.05,181.46c9.29,8.43,11.31,21.94,9.88,33.89-.04.27-.46.21-.47-.04-.1-2.7-.12-5.39-.23-8.06-.05-.12-.1-.23-.15-.35-2.4-1.61-4.62-3.45-6.06-6.03-1.61-2.89-2.32-6.18-3.58-9.21-.12-.29.2-.22.41-.07,5.6,3.81,7.5,8.07,9.29,13.79-.19-3-.53-5.99-1.29-8.96-1.39-5.44-3.92-10.78-8.02-14.7-.15-.15.07-.4.23-.25Z"/>
      <g>
        <path class="cls-10" d="M67.4,182.55c-1.54.11-2.41,2.61-3.58,3.37-.62.41-1.24.41-1.71-.2-1.25-1.62.3-3.73,1.79-4.93-1.08.49-1.96,1.32-3.14,1.59-.71.16-1.28-.09-1.47-.81-.61-2.24,2.19-3.36,4.14-3.48-.97-.62-3.75-2.3-2.34-3.24,1.42-.94,4.7,1.49,5.77,2.3,1.57,1.18,3.46,2.96,3.6,4.89.18,2.25-1.85.94-3.05.51Z"/>
        <path class="cls-2" d="M67.4,182.55c-1.54.11-2.41,2.61-3.58,3.37-.62.41-1.24.41-1.71-.2-1.25-1.62.3-3.73,1.79-4.93-1.08.49-1.96,1.32-3.14,1.59-.71.16-1.28-.09-1.47-.81-.61-2.24,2.19-3.36,4.14-3.48-.97-.62-3.75-2.3-2.34-3.24,1.42-.94,4.7,1.49,5.77,2.3,1.57,1.18,3.46,2.96,3.6,4.89.18,2.25-1.85.94-3.05.51Z"/>
        <path class="cls-5" d="M67.86,182.91c-2-.82-5.74.61-6.09-.12-.71-1.49,2.27-2.65,3.9-2.91-1.52-.35-4.42-.89-4.39-2.34.04-1.77,4.41-.42,6.65,1.17,2.83,2,2.89,4.04,2.45,4.46-.6.58-2.19-.12-2.52-.26Z"/>
      </g>
      <g>
        <path class="cls-10" d="M87.98,172.94c1.54.11,2.41,2.61,3.58,3.37.62.41,1.24.41,1.71-.2,1.25-1.62-.3-3.73-1.79-4.93,1.08.49,1.96,1.32,3.14,1.59.71.16,1.28-.09,1.47-.81.61-2.24-2.19-3.36-4.14-3.48.97-.62,3.75-2.3,2.34-3.24-1.42-.94-4.7,1.49-5.77,2.3-1.57,1.18-3.46,2.96-3.6,4.89-.18,2.25,1.85.94,3.05.51Z"/>
        <path class="cls-2" d="M87.98,172.94c1.54.11,2.41,2.61,3.58,3.37.62.41,1.24.41,1.71-.2,1.25-1.62-.3-3.73-1.79-4.93,1.08.49,1.96,1.32,3.14,1.59.71.16,1.28-.09,1.47-.81.61-2.24-2.19-3.36-4.14-3.48.97-.62,3.75-2.3,2.34-3.24-1.42-.94-4.7,1.49-5.77,2.3-1.57,1.18-3.46,2.96-3.6,4.89-.18,2.25,1.85.94,3.05.51Z"/>
        <path class="cls-5" d="M87.52,173.3c2-.82,5.74.61,6.09-.12.71-1.49-2.27-2.65-3.9-2.91,1.52-.35,4.42-.89,4.39-2.34-.04-1.77-4.41-.42-6.65,1.17-2.83,2-2.89,4.04-2.45,4.46.6.58,2.19-.12,2.52-.26Z"/>
      </g>
      <g>
        <path class="cls-10" d="M90.82,184.56c1.26.88.73,3.48,1.35,4.73.32.67.86.98,1.57.7,1.9-.75,1.65-3.35.99-5.15.68.98,1.01,2.14,1.88,2.97.53.5,1.14.58,1.68.06,1.67-1.62-.16-4.01-1.77-5.11,1.15-.04,4.4-.06,3.67-1.58-.74-1.53-4.8-1.12-6.13-.98-1.95.21-4.48.77-5.59,2.35-1.31,1.84,1.11,1.75,2.36,2Z"/>
        <path class="cls-2" d="M90.82,184.56c1.26.88.73,3.48,1.35,4.73.32.67.86.98,1.57.7,1.9-.75,1.65-3.35.99-5.15.68.98,1.01,2.14,1.88,2.97.53.5,1.14.58,1.68.06,1.67-1.62-.16-4.01-1.77-5.11,1.15-.04,4.4-.06,3.67-1.58-.74-1.53-4.8-1.12-6.13-.98-1.95.21-4.48.77-5.59,2.35-1.31,1.84,1.11,1.75,2.36,2Z"/>
        <path class="cls-5" d="M90.23,184.63c2.14.32,4.62,3.47,5.29,3.02,1.37-.92-.6-3.44-1.86-4.5,1.48.48,4.25,1.5,4.97.24.87-1.54-3.57-2.62-6.32-2.4-3.46.27-4.55,1.99-4.39,2.58.22.81,1.94,1.02,2.3,1.07Z"/>
      </g>
    </g>
    <path class="cls-12" d="M78.55,203.72c.69,4.44,1.54,9.03,2.88,13.33.13.39.71.29.65-.13-.61-4.11-1.72-8.14-2.33-12.24-.62-4.15-.95-8.37-.71-12.57.39-6.92,2.27-14.28,6.79-19.7.1-.13-.11-.31-.21-.19-9.04,10.54-7.6,23.46-7.59,24.62-1.28-4.36-2.6-9.37-7.44-13.81-.21-.19-.37-.1-.34.23.87,8.09,3.12,12.32,7.81,16.65.13,1.28.3,2.56.5,3.82Z"/>
    <path class="cls-5" d="M72.6,206.15l-3.99,30.46h24.26c-.5-2.7-5.02-30.5-5.02-30.5l-15.26.04Z"/>
  </g>
  <polygon class="cls-1" points="58.28 236.72 93.71 236.55 129.14 236.49 200 236.38 270.86 236.49 306.29 236.55 341.72 236.72 306.29 236.89 270.86 236.95 200 237.06 129.14 236.95 93.71 236.89 58.28 236.72"/>
  <ellipse class="cls-13" cx="200" cy="281.92" rx="102.23" ry="14.46"/>
  <g>
    <g>
      <path class="cls-12" d="M136.61,130.09l-4.26-16.76-33.63,8.55-4.45-17.49,26.88-61.26,13.33-3.39,12.96,51,10.76-2.74,4.48,17.61-10.76,2.74,4.26,16.76-19.57,4.97ZM113.56,99.36l16.63-4.23-5.5-21.65-11.13,25.88Z"/>
      <path class="cls-12" d="M232.94,74.15c0,5.55-.84,10.66-2.52,15.33-1.68,4.67-4,8.71-6.94,12.11-2.95,3.41-6.42,6.06-10.41,7.95-4,1.89-8.35,2.84-13.06,2.84s-9.09-.95-13.12-2.84c-4.04-1.89-7.53-4.54-10.47-7.95-2.95-3.41-5.24-7.45-6.88-12.11-1.64-4.67-2.46-9.78-2.46-15.33s.82-10.66,2.46-15.33c1.64-4.67,3.93-8.71,6.88-12.11,2.94-3.41,6.44-6.08,10.47-8.01,4.04-1.93,8.41-2.9,13.12-2.9s9.06.97,13.06,2.9c3.99,1.94,7.46,4.61,10.41,8.01,2.94,3.41,5.26,7.45,6.94,12.11,1.68,4.67,2.52,9.78,2.52,15.33ZM212.62,74.15c0-5.89-1.18-10.66-3.53-14.32-2.36-3.66-5.38-5.49-9.09-5.49s-6.96,1.83-9.28,5.49c-2.31,3.66-3.47,8.44-3.47,14.32s1.16,10.64,3.47,14.26c2.31,3.62,5.4,5.43,9.28,5.43s6.73-1.81,9.09-5.43c2.36-3.62,3.53-8.37,3.53-14.26Z"/>
      <path class="cls-12" d="M269.17,126.86l2.76-17.07-34.26-5.55,2.89-17.81,49.05-45.49,13.58,2.2-8.42,51.95,10.96,1.78-2.91,17.94-10.96-1.78-2.76,17.07-19.93-3.23ZM260.26,89.49l16.94,2.74,3.57-22.05-20.51,19.3Z"/>
    </g>
    <g>
      <path class="cls-12" d="M171.66,23.63c-1.44,0-2.75-.28-3.92-.85-1.17-.56-2.18-1.31-3.02-2.24-.84-.93-1.49-2-1.95-3.2-.46-1.2-.69-2.43-.69-3.69s.24-2.57.73-3.77c.49-1.2,1.16-2.26,2.02-3.19.86-.92,1.88-1.66,3.06-2.2,1.18-.54,2.47-.82,3.85-.82s2.72.29,3.89.87c1.17.58,2.17,1.34,3.01,2.29.83.94,1.48,2.01,1.94,3.21.46,1.2.69,2.42.69,3.66,0,1.31-.24,2.56-.72,3.75-.48,1.19-1.15,2.24-2,3.16-.85.91-1.87,1.64-3.05,2.19-1.18.55-2.47.82-3.85.82ZM165.95,13.66c0,.85.13,1.67.39,2.47.26.79.63,1.5,1.12,2.11.49.61,1.09,1.1,1.8,1.47.71.37,1.52.55,2.42.55s1.74-.19,2.45-.57c.71-.38,1.31-.88,1.8-1.51.49-.63.86-1.33,1.11-2.12.25-.78.37-1.58.37-2.4s-.13-1.67-.4-2.47c-.27-.79-.65-1.5-1.14-2.11-.49-.61-1.09-1.09-1.8-1.45-.71-.36-1.51-.54-2.4-.54s-1.75.19-2.47.57c-.72.38-1.32.88-1.8,1.5-.48.62-.84,1.32-1.09,2.11-.25.79-.37,1.58-.37,2.4Z"/>
      <path class="cls-12" d="M190.55,23.77c-1.18,0-2.24-.2-3.19-.61-.94-.41-1.74-.96-2.4-1.65-.66-.69-1.16-1.49-1.51-2.4-.35-.9-.53-1.86-.53-2.85s.18-1.98.53-2.88c.35-.9.85-1.7,1.51-2.4.66-.69,1.45-1.24,2.4-1.65.94-.41,2-.61,3.19-.61s2.24.2,3.17.61c.93.41,1.73.96,2.38,1.65.66.69,1.16,1.49,1.51,2.4.35.91.53,1.87.53,2.88s-.18,1.95-.53,2.85c-.35.91-.85,1.7-1.5,2.4-.65.69-1.44,1.24-2.38,1.65-.94.41-2,.61-3.19.61ZM186.76,16.26c0,.65.1,1.23.29,1.76.19.53.46.98.8,1.37.34.39.74.69,1.21.9.46.21.96.32,1.5.32s1.03-.11,1.5-.32c.46-.21.86-.51,1.21-.9.34-.39.61-.85.8-1.39.19-.54.29-1.13.29-1.77s-.1-1.21-.29-1.75c-.19-.54-.46-1-.8-1.39-.34-.39-.74-.69-1.21-.9-.46-.21-.96-.32-1.5-.32s-1.03.11-1.5.33c-.46.22-.86.53-1.21.91-.34.39-.61.85-.8,1.39-.19.54-.29,1.12-.29,1.75Z"/>
      <path class="cls-12" d="M209.34,23.77c-1.15,0-2.14-.25-2.99-.76-.85-.51-1.52-1.2-2-2.06v8.45h-3.71V8.97h3.24v2.49c.54-.85,1.23-1.52,2.08-2.01.85-.49,1.83-.73,2.94-.73.98,0,1.88.2,2.72.6s1.55.93,2.15,1.61c.6.67,1.07,1.47,1.41,2.38.34.91.51,1.88.51,2.9s-.16,2.04-.47,2.96c-.31.92-.75,1.73-1.32,2.41-.56.68-1.23,1.22-2.01,1.61-.78.39-1.63.58-2.55.58ZM208.09,20.61c.55,0,1.07-.12,1.54-.36.47-.24.87-.56,1.2-.97.33-.41.59-.88.78-1.41.18-.54.28-1.09.28-1.66,0-.61-.1-1.18-.3-1.7-.2-.53-.48-.98-.85-1.37-.36-.39-.78-.69-1.27-.91-.49-.22-1.02-.33-1.59-.33-.35,0-.71.06-1.08.18-.37.12-.71.29-1.03.51-.31.22-.6.48-.85.78-.25.3-.44.62-.57.97v3.41c.33.83.84,1.52,1.52,2.06.68.55,1.42.82,2.22.82Z"/>
      <path class="cls-12" d="M223.69,23.77c-1.22,0-2.41-.19-3.57-.58-1.16-.39-2.16-.94-2.99-1.66l1.39-2.33c.89.63,1.75,1.1,2.59,1.43.84.32,1.68.48,2.51.48.74,0,1.32-.14,1.75-.42.42-.28.64-.67.64-1.19s-.25-.9-.75-1.14c-.5-.24-1.31-.52-2.44-.83-.94-.26-1.75-.51-2.41-.75-.67-.24-1.2-.51-1.61-.82-.41-.3-.7-.66-.89-1.05s-.28-.87-.28-1.43c0-.74.14-1.4.43-2,.29-.59.69-1.09,1.2-1.51.52-.42,1.12-.73,1.82-.96.69-.22,1.44-.33,2.26-.33,1.09,0,2.11.16,3.06.47.95.31,1.82.82,2.62,1.52l-1.5,2.24c-.74-.55-1.45-.96-2.15-1.22-.69-.26-1.38-.39-2.06-.39-.63,0-1.15.13-1.58.39-.43.26-.64.67-.64,1.25,0,.26.05.47.15.64.1.17.26.31.48.44.22.13.51.25.87.37.36.12.81.25,1.34.37,1,.26,1.85.52,2.56.78.71.26,1.29.55,1.75.89.45.33.78.72,1,1.15.21.43.32.96.32,1.57,0,1.42-.53,2.54-1.58,3.37-1.05.82-2.48,1.23-4.29,1.23Z"/>
      <path class="cls-12" d="M232.69,16.09V3.63h3.71v12.47h-3.71ZM232.69,23.49v-4.18h3.71v4.18h-3.71Z"/>
    </g>
  </g>
  <g>
    <g>
      <rect class="cls-4" x="189.77" y="189.19" width="24.36" height="2"/>
      <rect class="cls-4" x="189.77" y="191.79" width="24.36" height="2"/>
      <rect class="cls-4" x="189.77" y="194.39" width="24.36" height="2"/>
      <rect class="cls-4" x="189.77" y="196.99" width="24.36" height="2"/>
      <rect class="cls-4" x="189.77" y="199.59" width="24.36" height="2"/>
    </g>
    <g>
      <rect class="cls-4" x="178.37" y="251.43" width="46.31" height="2"/>
      <rect class="cls-4" x="178.37" y="254.03" width="46.31" height="2"/>
      <rect class="cls-4" x="178.37" y="256.63" width="46.31" height="2"/>
      <rect class="cls-4" x="178.37" y="259.23" width="46.31" height="2"/>
      <rect class="cls-4" x="178.37" y="261.83" width="46.31" height="2"/>
    </g>
    <g>
      <g>
        <path class="cls-5" d="M158.05,172.7c.02-.27-10.14-3.67-10.14-3.67l.6-34.9,13.47-2.89-3.93,41.46Z"/>
        <path class="cls-14" d="M158.05,172.7c.02-.27-10.14-3.67-10.14-3.67l.6-34.9,13.47-2.89-3.93,41.46Z"/>
      </g>
      <g>
        <path class="cls-5" d="M251.09,186.4c.07-.26,10.78.04,10.78.04l11.45-32.98-11.65-7.35-10.58,40.29Z"/>
        <path class="cls-14" d="M251.09,186.4c.07-.26,10.78.04,10.78.04l11.45-32.98-11.65-7.35-10.58,40.29Z"/>
      </g>
      <path class="cls-5" d="M156.09,185.55s3.77-56.45,7.07-75.02c0,0,68.19,5.16,105,19.23,0,0-18.98,65.93-19.96,69.2,0,0-48.02-9.46-92.11-13.42Z"/>
      <g>
        <path class="cls-11" d="M216.96,118.07c-1.11,6.8-2.23,13.59-3.39,20.38l-3.51,20.36-.19-.29,22.85,5.43,11.41,2.77,11.4,2.82-11.46-2.56-11.45-2.62-22.87-5.34-.23-.05.04-.23,3.64-20.33c1.22-6.78,2.49-13.55,3.76-20.31Z"/>
        <path class="cls-11" d="M214.45,121.95c.01.62-.48,1.26-1.2,1.33-.35.03-.72-.08-1-.32-.28-.24-.45-.62-.45-1,0-.38.17-.76.45-1,.28-.25.66-.36,1-.32.71.06,1.21.7,1.2,1.33ZM214.45,121.95c0-.31-.14-.62-.38-.82-.23-.2-.54-.28-.82-.25-.58.07-.95.58-.94,1.07,0,.48.36,1,.94,1.07.28.03.59-.05.82-.25.23-.2.37-.51.38-.82Z"/>
        <path class="cls-11" d="M213.25,130.35c.01.62-.48,1.26-1.2,1.33-.35.03-.72-.08-1-.32-.28-.24-.45-.62-.45-1,0-.38.17-.76.45-1,.28-.25.66-.36,1-.32.71.06,1.21.7,1.2,1.33ZM213.25,130.35c0-.31-.14-.62-.38-.82-.23-.2-.54-.28-.82-.25-.58.07-.95.58-.94,1.07,0,.48.36,1,.94,1.07.28.03.59-.05.82-.25.23-.2.37-.51.38-.82Z"/>
        <path class="cls-11" d="M211.78,139.22c.01.62-.48,1.26-1.2,1.33-.35.03-.72-.08-1-.32-.28-.24-.45-.62-.45-1,0-.38.17-.76.45-1,.28-.25.66-.36,1-.32.71.06,1.21.7,1.2,1.33ZM211.78,139.22c0-.31-.14-.62-.38-.82-.23-.2-.54-.28-.82-.25-.58.07-.95.58-.94,1.07,0,.48.36,1,.94,1.07.28.03.59-.05.82-.25.23-.2.37-.51.38-.82Z"/>
        <path class="cls-11" d="M210.3,148.09c.01.62-.48,1.26-1.2,1.33-.35.03-.72-.08-1-.32-.28-.24-.45-.62-.45-1,0-.38.17-.76.45-1,.28-.25.66-.36,1-.32.71.06,1.21.7,1.2,1.33ZM210.3,148.09c0-.31-.14-.62-.38-.82-.23-.2-.54-.28-.82-.25-.58.07-.95.58-.94,1.07,0,.48.36,1,.94,1.07.28.03.59-.05.82-.25.23-.2.37-.51.38-.82Z"/>
        <path class="cls-11" d="M215.33,162.25c.01.62-.48,1.26-1.2,1.33-.35.03-.72-.08-1-.32-.28-.24-.45-.62-.45-1,0-.38.17-.76.45-1,.28-.25.66-.36,1-.32.71.06,1.21.7,1.2,1.33ZM215.33,162.25c0-.31-.14-.62-.38-.82-.23-.2-.54-.28-.82-.25-.58.07-.95.58-.94,1.07,0,.48.36,1,.94,1.07.28.03.59-.05.82-.25.23-.2.37-.51.38-.82Z"/>
        <path class="cls-11" d="M223.7,164.29c.01.62-.48,1.26-1.2,1.33-.35.03-.72-.08-1-.32-.28-.24-.45-.62-.45-1,0-.38.17-.76.45-1,.28-.25.66-.36,1-.32.71.06,1.21.7,1.2,1.33ZM223.7,164.29c0-.31-.14-.62-.38-.82-.23-.2-.54-.28-.82-.25-.58.07-.95.58-.94,1.07,0,.48.36,1,.94,1.07.28.03.59-.05.82-.25.23-.2.37-.51.38-.82Z"/>
        <path class="cls-11" d="M232.08,166.33c.01.62-.48,1.26-1.2,1.33-.35.03-.72-.08-1-.32-.28-.24-.45-.62-.45-1,0-.38.17-.76.45-1,.28-.25.66-.36,1-.32.71.06,1.21.7,1.2,1.33ZM232.08,166.33c0-.31-.14-.62-.38-.82-.23-.2-.54-.28-.82-.25-.58.07-.95.58-.94,1.07,0,.48.36,1,.94,1.07.28.03.59-.05.82-.25.23-.2.37-.51.38-.82Z"/>
        <path class="cls-11" d="M240.46,168.38c.01.62-.48,1.26-1.2,1.33-.35.03-.72-.08-1-.32-.28-.24-.45-.62-.45-1,0-.38.17-.76.45-1,.28-.25.66-.36,1-.32.71.06,1.21.7,1.2,1.33ZM240.46,168.38c0-.31-.14-.62-.38-.82-.23-.2-.54-.28-.82-.25-.58.07-.95.58-.94,1.07,0,.48.36,1,.94,1.07.28.03.59-.05.82-.25.23-.2.37-.51.38-.82Z"/>
        <path class="cls-11" d="M248.83,170.51c-.04.62-.58,1.22-1.3,1.23-.35,0-.71-.13-.97-.4-.26-.27-.4-.65-.37-1.03.03-.38.23-.74.53-.97.3-.22.68-.3,1.03-.24.71.12,1.15.8,1.09,1.41ZM248.83,170.51c.02-.31-.09-.63-.31-.85-.22-.22-.52-.32-.8-.31-.58.02-.99.51-1.02.99-.05.48.29,1.03.86,1.14.28.05.59,0,.84-.18.25-.18.41-.48.44-.79Z"/>
        <path class="cls-11" d="M208.83,156.97c.01.62-.48,1.26-1.2,1.33-.35.03-.72-.08-1-.32-.28-.24-.45-.62-.45-1,0-.38.17-.76.45-1,.28-.25.66-.36,1-.32.71.06,1.21.7,1.2,1.33ZM208.83,156.97c0-.31-.14-.62-.38-.82-.23-.2-.54-.28-.82-.25-.58.07-.95.58-.94,1.07,0,.48.36,1,.94,1.07.28.03.59-.05.82-.25.23-.2.37-.51.38-.82Z"/>
      </g>
      <g>
        <g>
          <circle class="cls-14" cx="181.78" cy="157.27" r="19.36" transform="translate(-58.55 161.86) rotate(-41.96)"/>
          <circle class="cls-12" cx="181.78" cy="157.27" r="15.53" transform="translate(-29.66 271.6) rotate(-69.27)"/>
          <g>
            <rect class="cls-5" x="176.89" y="151.26" width="3.68" height="3.68" transform="translate(26.78 -26.61) rotate(9.2)"/>
            <rect class="cls-5" x="173.85" y="147.04" width="3.68" height="3.68" transform="translate(26.07 -26.18) rotate(9.2)"/>
            <rect class="cls-5" x="188.37" y="149.39" width="3.68" height="3.68" transform="translate(26.63 -28.47) rotate(9.2)"/>
            <rect class="cls-5" x="171.51" y="161.48" width="3.68" height="3.68" transform="translate(28.35 -25.62) rotate(9.2)"/>
            <rect class="cls-5" x="186.03" y="163.83" width="3.68" height="3.68" transform="translate(28.91 -27.91) rotate(9.2)"/>
            <rect class="cls-5" x="175.73" y="158.44" width="3.68" height="3.68" transform="translate(27.92 -26.33) rotate(9.2)"/>
            <rect class="cls-5" x="179.94" y="155.43" width="3.68" height="3.68" transform="translate(27.49 -27.05) rotate(9.2)"/>
            <rect class="cls-5" x="184.15" y="152.43" width="3.68" height="3.68" transform="translate(27.07 -27.76) rotate(9.2)"/>
            <rect class="cls-5" x="182.99" y="159.61" width="3.68" height="3.68" transform="translate(28.2 -27.48) rotate(9.2)"/>
          </g>
        </g>
        <g>
          <g>
            <circle class="cls-5" cx="233.74" cy="165.39" r="19.36" transform="translate(-42.33 241.35) rotate(-50.67)"/>
            <circle class="cls-14" cx="233.74" cy="165.39" r="19.36" transform="translate(-42.33 241.35) rotate(-50.67)"/>
            <path class="cls-14" d="M252.58,169.87c-.09.38-.19.75-.31,1.12l-37.74-8.05c.09-.67.21-1.35.37-2.03,2.47-10.4,12.91-16.83,23.32-14.36,10.4,2.47,16.83,12.91,14.36,23.32Z"/>
          </g>
          <circle class="cls-12" cx="233.74" cy="165.39" r="15.53" transform="translate(-45.69 102.89) rotate(-22.68)"/>
          <rect class="cls-5" x="231.9" y="156.23" width="3.68" height="18.31" transform="translate(44.57 -49.56) rotate(13.37)"/>
          <g>
            <path class="cls-5" d="M253.7,169.5l-39.64-9.42c2.6-10.95,13.59-17.71,24.53-15.11,10.95,2.6,17.71,13.58,15.11,24.53Z"/>
            <path class="cls-14" d="M253.7,169.5l-39.64-9.42c2.6-10.95,13.59-17.71,24.53-15.11,10.95,2.6,17.71,13.58,15.11,24.53Z"/>
          </g>
        </g>
        <path class="cls-11" d="M200.05,176.9c.1-1.55.67-3.12,1.79-4.36.55-.63,1.29-1.12,2.11-1.42.82-.3,1.7-.35,2.54-.28.85.1,1.72.4,2.43.94.7.55,1.23,1.26,1.55,2.03.65,1.54.72,3.18.4,4.7-.26-1.52-.65-3-1.36-4.21-.71-1.22-1.83-1.98-3.16-2.1-1.36-.17-2.69.2-3.76,1.1-1.07.9-1.89,2.19-2.53,3.6Z"/>
      </g>
      <g>
        <path class="cls-7" d="M161.4,137.4c.16-2.07.39-4.13.59-6.19.22-2.06.45-4.12.7-6.18.24-2.06.51-4.11.77-6.17.26-2.06.56-4.1.83-6.16l.07-.55.56.03c4.47.28,8.93.64,13.38,1.1,2.23.23,4.45.49,6.67.77,2.22.32,4.44.61,6.64,1.01l-13.39-.83-13.37-.87.63-.51c-.3,2.05-.59,4.1-.91,6.15-.32,2.05-.63,4.09-.97,6.14-.33,2.04-.68,4.09-1.04,6.13-.38,2.04-.73,4.08-1.15,6.11Z"/>
        <path class="cls-7" d="M164.62,153.05c.45-2.49,1.58-4.86,3.1-6.92.38-.52.81-1,1.22-1.49.45-.46.91-.91,1.37-1.36.5-.41,1.01-.81,1.52-1.2.55-.35,1.09-.71,1.64-1.04.59-.28,1.17-.57,1.76-.84l1.84-.64,1.9-.39c.64-.09,1.29-.11,1.93-.16,2.58-.07,5.12.48,7.45,1.43-2.48-.46-4.96-.72-7.39-.49-2.43.23-4.8.95-6.91,2.14-2.13,1.16-4.02,2.77-5.61,4.63-1.59,1.87-2.9,3.99-3.83,6.34Z"/>
        <path class="cls-7" d="M218.03,158.28c.79-2.4,2.24-4.59,4.02-6.43.45-.46.94-.88,1.42-1.31.51-.4,1.03-.77,1.55-1.16.55-.33,1.11-.66,1.67-.98.59-.27,1.17-.55,1.77-.8.62-.2,1.23-.4,1.86-.59l1.91-.38,1.94-.13c.65,0,1.29.07,1.93.11,2.57.29,5.01,1.19,7.19,2.44-2.39-.8-4.81-1.4-7.26-1.51-2.44-.11-4.88.28-7.14,1.17-2.27.86-4.36,2.19-6.19,3.81-1.83,1.64-3.42,3.55-4.67,5.75Z"/>
      </g>
    </g>
    <g>
      <g>
        <g>
          <path class="cls-5" d="M158.26,220.34c-4.96,0-15.82-1.12-22.81-10.1-8.94-11.49-5.71-33.55-5.57-34.48l3.88.59c-.03.21-3.12,21.32,4.78,31.48,7.73,9.93,21.74,8.51,21.88,8.49l.44,3.9c-.15.02-1.11.12-2.61.12Z"/>
          <path class="cls-3" d="M158.26,220.34c-4.96,0-15.82-1.12-22.81-10.1-8.94-11.49-5.71-33.55-5.57-34.48l3.88.59c-.03.21-3.12,21.32,4.78,31.48,7.73,9.93,21.74,8.51,21.88,8.49l.44,3.9c-.15.02-1.11.12-2.61.12Z"/>
        </g>
        <path class="cls-5" d="M134.91,179.01c-.71,0-1.43-.06-2.17-.18-6.55-1.06-9.45-4.98-10.73-8.08-1.28-3.11-1.58-6.87-.88-11.17l8.3,1.35c-.43,2.67-.31,5.02.35,6.62.47,1.14,1.38,2.51,4.29,2.98,1.33.22,2.77.1,4.27-2.17,1.16-1.75,1.86-4.14,2.1-5.65l8.3,1.35c-.19,1.19-1.01,5.34-3.4,8.95-2.6,3.92-6.26,6-10.46,6Z"/>
        <g>
          <path class="cls-5" d="M166.46,231.57c-.01-.18-7.03-1.3-7.03-1.3l-3.41-22.91,8.5-3.36,1.94,27.57Z"/>
          <path class="cls-14" d="M166.46,231.57c-.01-.18-7.03-1.3-7.03-1.3l-3.41-22.91,8.5-3.36,1.94,27.57Z"/>
        </g>
      </g>
      <g>
        <path class="cls-5" d="M235.87,231.61c.02-.18,7.06-1.14,7.06-1.14l3.91-22.83-8.43-3.55-2.55,27.52Z"/>
        <path class="cls-14" d="M235.87,231.61c.02-.18,7.06-1.14,7.06-1.14l3.91-22.83-8.43-3.55-2.55,27.52Z"/>
      </g>
      <path class="cls-5" d="M163.54,198.87s56.78-2.43,75.96.77c0,0-5.63,54.94-5.94,56.01,0,0-56.48-.15-65.31,0,0,0-4.79-36.53-4.71-56.78Z"/>
      <g>
        <path class="cls-14" d="M180.79,213.92s31-1.22,41.47.39c0,0-3.07,27.71-3.24,28.24,0,0-30.83-.08-35.65,0,0,0-2.12-18.96-2.57-28.63Z"/>
        <path class="cls-14" d="M185.02,242.54c-.71,0-1.27,0-1.67.01,0,0-2.11-18.97-2.57-28.63,0,0,.7-.03,1.94-.07l2.3,28.69Z"/>
        <g>
          <path class="cls-5" d="M194.17,220.76c-1.74-.55-3.59.42-4.14,2.15-.55,1.74.42,3.59,2.15,4.14,1.74.55,3.58-.42,4.13-2.15.55-1.74-.42-3.59-2.15-4.14ZM195.94,224.78c-.48,1.53-2.11,2.37-3.63,1.89-1.52-.48-2.37-2.11-1.89-3.63.48-1.52,2.11-2.37,3.63-1.89,1.52.48,2.37,2.1,1.89,3.63ZM194.17,220.76c-1.74-.55-3.59.42-4.14,2.15-.55,1.74.42,3.59,2.15,4.14,1.74.55,3.58-.42,4.13-2.15.55-1.74-.42-3.59-2.15-4.14ZM195.94,224.78c-.48,1.53-2.11,2.37-3.63,1.89-1.52-.48-2.37-2.11-1.89-3.63.48-1.52,2.11-2.37,3.63-1.89,1.52.48,2.37,2.1,1.89,3.63ZM194.17,220.76c-1.74-.55-3.59.42-4.14,2.15-.55,1.74.42,3.59,2.15,4.14,1.74.55,3.58-.42,4.13-2.15.55-1.74-.42-3.59-2.15-4.14ZM195.94,224.78c-.48,1.53-2.11,2.37-3.63,1.89-1.52-.48-2.37-2.11-1.89-3.63.48-1.52,2.11-2.37,3.63-1.89,1.52.48,2.37,2.1,1.89,3.63ZM195.26,217.28c-3.66-1.15-7.56.88-8.72,4.54-1.15,3.66.88,7.56,4.54,8.72,3.66,1.15,7.56-.88,8.71-4.54,1.15-3.66-.88-7.56-4.54-8.72ZM196.81,225.05c-.63,2-2.77,3.12-4.78,2.49-2-.63-3.12-2.77-2.49-4.78.63-2,2.78-3.12,4.78-2.49,2,.63,3.12,2.77,2.49,4.78ZM196.32,224.9c.55-1.74-.42-3.59-2.15-4.14-1.74-.55-3.59.42-4.14,2.15-.55,1.74.42,3.59,2.15,4.14,1.74.55,3.58-.42,4.13-2.15ZM195.94,224.78c-.48,1.53-2.11,2.37-3.63,1.89-1.52-.48-2.37-2.11-1.89-3.63.48-1.52,2.11-2.37,3.63-1.89,1.52.48,2.37,2.1,1.89,3.63ZM194.17,220.76c-1.74-.55-3.59.42-4.14,2.15-.55,1.74.42,3.59,2.15,4.14,1.74.55,3.58-.42,4.13-2.15.55-1.74-.42-3.59-2.15-4.14ZM195.94,224.78c-.48,1.53-2.11,2.37-3.63,1.89-1.52-.48-2.37-2.11-1.89-3.63.48-1.52,2.11-2.37,3.63-1.89,1.52.48,2.37,2.1,1.89,3.63ZM194.17,220.76c-1.74-.55-3.59.42-4.14,2.15-.55,1.74.42,3.59,2.15,4.14,1.74.55,3.58-.42,4.13-2.15.55-1.74-.42-3.59-2.15-4.14ZM195.94,224.78c-.48,1.53-2.11,2.37-3.63,1.89-1.52-.48-2.37-2.11-1.89-3.63.48-1.52,2.11-2.37,3.63-1.89,1.52.48,2.37,2.1,1.89,3.63Z"/>
          <g>
            <polygon class="cls-5" points="192.45 230.66 189.9 229.86 189.47 231.7 191.74 232.42 192.45 230.66"/>
            <polygon class="cls-5" points="187.87 228.27 186.63 225.9 185.02 226.91 186.12 229.02 187.87 228.27"/>
            <polygon class="cls-5" points="186.32 223.35 187.12 220.8 185.27 220.37 184.56 222.64 186.32 223.35"/>
            <polygon class="cls-5" points="188.7 218.77 191.07 217.53 190.07 215.92 187.96 217.02 188.7 218.77"/>
            <polygon class="cls-5" points="193.63 217.22 196.18 218.02 196.61 216.17 194.34 215.46 193.63 217.22"/>
            <polygon class="cls-5" points="198.21 219.6 199.44 221.97 201.05 220.97 199.96 218.86 198.21 219.6"/>
            <polygon class="cls-5" points="199.76 224.53 198.96 227.08 200.81 227.5 201.52 225.24 199.76 224.53"/>
            <polygon class="cls-5" points="197.37 229.11 195 230.34 196.01 231.95 198.12 230.85 197.37 229.11"/>
          </g>
        </g>
        <g>
          <path class="cls-9" d="M205.37,230.46c-1.03-.67-2.4-.38-3.07.65-.67,1.03-.38,2.4.65,3.07,1.03.67,2.4.38,3.07-.65.67-1.03.38-2.4-.65-3.07ZM205.8,233.38c-.59.9-1.79,1.16-2.7.57-.9-.59-1.16-1.79-.57-2.7.59-.9,1.79-1.16,2.7-.57.9.59,1.16,1.79.57,2.7ZM205.37,230.46c-1.03-.67-2.4-.38-3.07.65-.67,1.03-.38,2.4.65,3.07,1.03.67,2.4.38,3.07-.65.67-1.03.38-2.4-.65-3.07ZM205.8,233.38c-.59.9-1.79,1.16-2.7.57-.9-.59-1.16-1.79-.57-2.7.59-.9,1.79-1.16,2.7-.57.9.59,1.16,1.79.57,2.7ZM205.37,230.46c-1.03-.67-2.4-.38-3.07.65-.67,1.03-.38,2.4.65,3.07,1.03.67,2.4.38,3.07-.65.67-1.03.38-2.4-.65-3.07ZM205.8,233.38c-.59.9-1.79,1.16-2.7.57-.9-.59-1.16-1.79-.57-2.7.59-.9,1.79-1.16,2.7-.57.9.59,1.16,1.79.57,2.7ZM206.72,228.4c-2.17-1.41-5.06-.8-6.47,1.37-1.41,2.17-.8,5.06,1.37,6.47,2.16,1.41,5.06.8,6.47-1.37,1.41-2.16.8-5.06-1.37-6.47ZM206.31,233.72c-.77,1.19-2.36,1.52-3.55.75-1.18-.77-1.52-2.36-.75-3.55.77-1.19,2.36-1.52,3.55-.75,1.18.77,1.52,2.36.75,3.55ZM206.02,233.53c.67-1.03.38-2.4-.65-3.07-1.03-.67-2.4-.38-3.07.65-.67,1.03-.38,2.4.65,3.07,1.03.67,2.4.38,3.07-.65ZM205.8,233.38c-.59.9-1.79,1.16-2.7.57-.9-.59-1.16-1.79-.57-2.7.59-.9,1.79-1.16,2.7-.57.9.59,1.16,1.79.57,2.7ZM205.37,230.46c-1.03-.67-2.4-.38-3.07.65-.67,1.03-.38,2.4.65,3.07,1.03.67,2.4.38,3.07-.65.67-1.03.38-2.4-.65-3.07ZM205.8,233.38c-.59.9-1.79,1.16-2.7.57-.9-.59-1.16-1.79-.57-2.7.59-.9,1.79-1.16,2.7-.57.9.59,1.16,1.79.57,2.7ZM205.37,230.46c-1.03-.67-2.4-.38-3.07.65-.67,1.03-.38,2.4.65,3.07,1.03.67,2.4.38,3.07-.65.67-1.03.38-2.4-.65-3.07ZM205.8,233.38c-.59.9-1.79,1.16-2.7.57-.9-.59-1.16-1.79-.57-2.7.59-.9,1.79-1.16,2.7-.57.9.59,1.16,1.79.57,2.7Z"/>
          <g>
            <polygon class="cls-9" points="202.47 236.57 200.96 235.59 200.35 236.71 201.69 237.58 202.47 236.57"/>
            <polygon class="cls-9" points="199.93 234.19 199.56 232.43 198.33 232.79 198.66 234.36 199.93 234.19"/>
            <polygon class="cls-9" points="199.82 230.72 200.8 229.21 199.68 228.6 198.8 229.94 199.82 230.72"/>
            <polygon class="cls-9" points="202.19 228.18 203.95 227.81 203.59 226.58 202.03 226.91 202.19 228.18"/>
            <polygon class="cls-9" points="205.67 228.06 207.17 229.04 207.79 227.92 206.45 227.05 205.67 228.06"/>
            <polygon class="cls-9" points="208.21 230.44 208.58 232.2 209.8 231.84 209.47 230.27 208.21 230.44"/>
            <polygon class="cls-9" points="208.32 233.91 207.34 235.42 208.46 236.03 209.33 234.69 208.32 233.91"/>
            <polygon class="cls-9" points="205.94 236.45 204.18 236.82 204.54 238.05 206.11 237.72 205.94 236.45"/>
          </g>
        </g>
      </g>
      <g>
        <polygon class="cls-5" points="238.13 249.25 240.31 249.66 246.55 207.39 244.07 206.93 238.13 249.25"/>
        <g>
          <path class="cls-5" d="M219.01,242.55l3.24-28.24,21.81-7.38s-5.94,42.78-5.94,42.32l-19.12-6.7Z"/>
          <path class="cls-3" d="M219.01,242.55l3.24-28.24,21.81-7.38s-5.94,42.78-5.94,42.32l-19.12-6.7Z"/>
        </g>
      </g>
      <path class="cls-7" d="M166.15,215.46c-.36-2.34-.55-4.7-.69-7.06-.07-1.18-.1-2.36-.12-3.55-.02-1.18-.04-2.37,0-3.55v-.31s.31-.02.31-.02c4.33-.23,8.66-.52,13-.71,4.33-.21,8.67-.41,13.01-.54-4.32.39-8.65.73-12.98,1.04-4.33.34-8.66.58-12.99.88l.31-.33-.02,3.53.04,3.53c0,1.18.03,2.36.06,3.54l.08,3.54Z"/>
      <path class="cls-7" d="M225.3,214.73c1.35-.64,2.72-1.24,4.11-1.79,1.38-.56,2.78-1.1,4.2-1.59,1.42-.48,2.84-.96,4.28-1.36,1.44-.41,2.9-.78,4.38-1.02l.37-.06-.07.35c-.34,1.83-.7,3.65-1.12,5.47.16-1.86.38-3.7.62-5.55l.3.29c-1.44.34-2.87.75-4.3,1.17-1.42.43-2.84.87-4.26,1.34l-8.52,2.76Z"/>
      <g>
        <polygon class="cls-11" points="175.58 198.98 175.95 206.05 176.27 213.11 176.81 227.25 177.24 241.39 177.41 248.46 177.52 255.53 177.16 248.47 176.84 241.4 176.3 227.27 175.87 213.13 175.7 206.06 175.58 198.98"/>
        <path class="cls-11" d="M173.56,203.24c.14.61-.22,1.33-.91,1.54-.33.1-.72.07-1.05-.12-.32-.18-.56-.52-.64-.89-.07-.37.02-.78.24-1.07.23-.3.57-.48.92-.52.71-.08,1.33.45,1.44,1.06ZM173.56,203.24c-.06-.31-.26-.58-.53-.73-.27-.15-.59-.17-.85-.08-.55.18-.81.76-.71,1.23.09.48.55.91,1.13.86.28-.02.57-.16.76-.41.19-.24.27-.57.21-.88Z"/>
        <path class="cls-11" d="M174.05,211.71c.14.61-.22,1.33-.91,1.54-.33.1-.72.07-1.05-.12-.32-.18-.56-.52-.64-.89-.07-.37.02-.78.24-1.07.23-.3.57-.48.92-.52.71-.08,1.33.45,1.44,1.06ZM174.05,211.71c-.06-.31-.26-.58-.53-.73-.27-.15-.59-.17-.85-.08-.55.18-.81.76-.71,1.23.09.48.55.91,1.13.86.28-.02.57-.16.76-.41.19-.24.27-.57.21-.88Z"/>
        <path class="cls-11" d="M174.36,220.7c.14.61-.22,1.33-.91,1.54-.33.1-.72.07-1.05-.12-.32-.18-.56-.52-.64-.89-.07-.37.02-.78.24-1.07.23-.3.57-.48.92-.52.71-.08,1.33.45,1.44,1.06ZM174.36,220.7c-.06-.31-.26-.58-.53-.73-.27-.15-.59-.17-.85-.08-.55.18-.81.76-.71,1.23.09.48.56.91,1.13.86.28-.02.57-.16.76-.41.19-.24.27-.57.21-.88Z"/>
        <path class="cls-11" d="M174.67,229.69c.14.61-.22,1.33-.91,1.54-.33.1-.72.07-1.05-.12-.32-.18-.56-.52-.64-.89-.07-.37.02-.78.24-1.07.23-.3.57-.48.92-.52.71-.08,1.33.45,1.44,1.06ZM174.67,229.69c-.06-.31-.26-.58-.53-.73-.27-.15-.59-.17-.85-.08-.55.18-.81.76-.71,1.23.09.48.55.91,1.13.86.28-.02.57-.16.76-.41.19-.24.27-.57.21-.88Z"/>
        <path class="cls-11" d="M174.97,238.68c.14.61-.22,1.33-.91,1.54-.33.1-.72.07-1.05-.12-.32-.18-.56-.52-.64-.89-.07-.37.02-.78.24-1.07.23-.3.57-.48.92-.51.71-.08,1.33.45,1.44,1.06ZM174.97,238.68c-.06-.31-.26-.58-.53-.73-.27-.15-.59-.17-.85-.08-.55.18-.81.76-.71,1.23.09.48.55.91,1.13.86.28-.02.57-.16.76-.41.19-.24.27-.57.21-.88Z"/>
        <path class="cls-11" d="M175.28,247.67c.14.61-.22,1.33-.91,1.54-.33.1-.72.07-1.05-.12-.32-.18-.56-.52-.64-.89-.07-.37.02-.78.24-1.07.23-.3.57-.48.92-.52.71-.08,1.33.45,1.44,1.06ZM175.28,247.67c-.06-.31-.26-.58-.53-.73-.27-.15-.59-.17-.85-.08-.55.18-.81.76-.71,1.23.09.48.56.91,1.13.86.28-.02.57-.16.76-.41.19-.24.27-.57.21-.88Z"/>
      </g>
    </g>
    <g>
      <rect class="cls-10" x="145.77" y="266.21" width="33.59" height="3.93" transform="translate(-70.79 58.68) rotate(-16.86)"/>
      <rect class="cls-5" x="145.77" y="266.21" width="33.59" height="3.93" transform="translate(-70.79 58.68) rotate(-16.86)"/>
      <rect class="cls-2" x="159.72" y="265.26" width="3.93" height="5.83" transform="translate(-73.68 61.62) rotate(-17.64)"/>
      <g>
        <polygon class="cls-5" points="146.79 280.43 138.5 244.5 113.46 250.44 125.79 285.45 146.79 280.43"/>
        <g>
          <polygon class="cls-10" points="152.35 278.6 146.79 280.43 138.5 244.5 146.49 246.4 152.35 278.6"/>
          <polygon class="cls-2" points="152.35 278.6 146.79 280.43 138.5 244.5 146.49 246.4 152.35 278.6"/>
        </g>
      </g>
      <circle class="cls-2" cx="178.64" cy="263.3" r="4.26"/>
    </g>
    <g>
      <rect class="cls-10" x="236.04" y="251.31" width="3.93" height="33.6" transform="translate(-87.92 417.44) rotate(-73.02)"/>
      <rect class="cls-5" x="236.04" y="251.31" width="3.93" height="33.6" transform="translate(-87.92 417.44) rotate(-73.02)"/>
      <rect class="cls-2" x="235.97" y="266.15" width="5.83" height="3.93" transform="translate(-89.34 413.76) rotate(-72.23)"/>
      <g>
        <polygon class="cls-5" points="253.74 280.39 262.12 244.49 287.15 250.48 274.74 285.46 253.74 280.39"/>
        <g>
          <polygon class="cls-10" points="248.19 278.56 253.74 280.39 262.12 244.49 254.12 246.37 248.19 278.56"/>
          <polygon class="cls-2" points="248.19 278.56 253.74 280.39 262.12 244.49 254.12 246.37 248.19 278.56"/>
        </g>
      </g>
      <path class="cls-2" d="M217.67,263.19c0,2.35,1.9,4.27,4.25,4.27,2.35,0,4.27-1.9,4.27-4.25,0-2.35-1.9-4.27-4.25-4.27-2.35,0-4.27,1.9-4.27,4.25Z"/>
    </g>
    <g>
      <g class="cls-15">
        <path class="cls-5" d="M249.84,218.88c.1-.09,10.43-9.67,22.58-6.4,12.42,3.35,22.68,22.06,22.78,22.25l3.45-1.87c-.45-.83-11.15-20.39-25.21-24.17-14.31-3.86-25.82,6.88-26.3,7.34l2.7,2.85Z"/>
        <path class="cls-6" d="M249.84,218.88c.1-.09,10.43-9.67,22.58-6.4,12.42,3.35,22.68,22.06,22.78,22.25l3.45-1.87c-.45-.83-11.15-20.39-25.21-24.17-14.31-3.86-25.82,6.88-26.3,7.34l2.7,2.85Z"/>
      </g>
      <path class="cls-5" d="M290.62,253.57l7.44-3.93c-.71-1.35-1.59-3.68-1.72-5.77-.17-2.72.91-3.68,2.1-4.3,2.61-1.38,4.16-.83,5.22-.2,1.49.88,3.01,2.68,4.27,5.07l7.44-3.93c-2.04-3.86-4.54-6.68-7.43-8.39-2.89-1.7-7.56-3.09-13.43.01-4.57,2.41-6.91,6.77-6.57,12.25.26,4.32,2.12,8.13,2.68,9.19Z"/>
    </g>
    <g>
      <path class="cls-12" d="M251.41,205.77c1.61-1.11,3.26-2.16,4.92-3.2,1.65-1.05,3.33-2.05,5.01-3.05,1.69-.99,3.38-1.97,5.09-2.91l2.57-1.41c.87-.45,1.73-.91,2.61-1.34-.8.56-1.63,1.09-2.44,1.63l-2.48,1.57c-1.65,1.05-3.33,2.05-5.01,3.04-1.69.98-3.38,1.97-5.09,2.91-1.71.95-3.43,1.88-5.19,2.75Z"/>
      <path class="cls-12" d="M247.13,221.82c2.31,1.32,4.5,2.8,6.66,4.33,2.15,1.54,4.26,3.13,6.26,4.88-2.31-1.31-4.5-2.8-6.66-4.33-2.15-1.54-4.26-3.13-6.26-4.88Z"/>
      <path class="cls-12" d="M250.93,219.85c1.78.54,3.54,1.15,5.29,1.78,1.75.61,3.49,1.28,5.22,1.95,1.73.68,3.45,1.36,5.16,2.09l2.56,1.1c.84.39,1.7.76,2.53,1.17-.89-.26-1.77-.57-2.66-.85l-2.63-.92c-1.75-.62-3.49-1.28-5.22-1.95-1.73-.68-3.45-1.36-5.16-2.09-1.71-.72-3.42-1.46-5.1-2.26Z"/>
      <path class="cls-12" d="M255.99,207.28c1.71-.44,3.43-.81,5.15-1.17,1.72-.37,3.45-.68,5.18-.99,1.73-.3,3.47-.59,5.21-.84l2.61-.36c.88-.1,1.75-.22,2.63-.29-.85.23-1.71.41-2.57.62l-2.58.55c-1.72.37-3.45.68-5.18.99-1.73.3-3.47.59-5.21.83-1.74.25-3.49.49-5.24.65Z"/>
    </g>
  </g>
  <g>
    <path class="cls-12" d="M214.83,217.96c.29-1.39.76-2.74,1.36-4.03.6-1.29,1.34-2.52,2.27-3.62.93-1.09,2.07-2.04,3.45-2.57,1.38-.51,2.95-.51,4.33.04,1.4.54,2.5,1.72,3.09,3.06.31.67.5,1.4.58,2.13.07.74.04,1.5-.25,2.24-.15.36-.38.73-.76.97-.18.13-.4.2-.62.23-.21.03-.43.02-.68-.07-.46-.2-.69-.56-.89-.9-.18-.35-.31-.7-.41-1.06-.39-1.43-.42-2.89-.36-4.33.2-2.87.96-5.74,2.5-8.2.78-1.22,1.76-2.34,2.97-3.16,1.2-.83,2.61-1.39,4.04-1.56.71-.17,1.43-.15,2.16-.19.36-.04.72.05,1.08.07.36.05.72.04,1.07.14,1.42.26,2.77.83,4.02,1.52,1.24.72,2.35,1.64,3.36,2.64,1,1.01,1.91,2.11,2.65,3.33-1.62-2.31-3.71-4.32-6.17-5.67-1.24-.64-2.55-1.17-3.93-1.39-.34-.09-.69-.08-1.03-.12-.35-.01-.69-.09-1.04-.04-.69.05-1.39.05-2.06.23-1.38.19-2.67.75-3.79,1.53-1.13.78-2.05,1.84-2.78,3.01-1.46,2.36-2.17,5.15-2.35,7.91-.08,1.38-.04,2.8.3,4.11.16.63.46,1.34.89,1.53.06,0,.09.03.16.04.07,0,.14,0,.2,0,.13-.02.26-.06.37-.13.23-.14.4-.39.52-.68.24-.58.28-1.27.22-1.94-.07-.67-.24-1.34-.52-1.95-.54-1.23-1.5-2.3-2.75-2.82-1.24-.53-2.69-.57-3.98-.12-1.29.46-2.41,1.36-3.34,2.39-1.87,2.09-3.13,4.71-3.88,7.43Z"/>
    <path class="cls-12" d="M151.45,235.73c.66-1.25,1.64-2.33,2.77-3.18,1.14-.85,2.44-1.52,3.84-1.84,1.39-.33,2.89-.34,4.29.08,1.4.42,2.65,1.24,3.66,2.28,1.01,1.04,1.77,2.31,2.29,3.66.51,1.35.82,2.79.71,4.27-.07.73-.22,1.51-.8,2.14-.29.31-.73.51-1.16.52-.41,0-.8-.07-1.18-.27-.38-.19-.68-.53-.85-.91-.17-.37-.24-.77-.26-1.15-.03-.77.14-1.5.36-2.19.46-1.39,1.22-2.64,2.1-3.78.89-1.13,1.93-2.14,3.1-2.98,2.32-1.69,5.28-2.62,8.17-2.25,1.43.19,2.84.6,4.09,1.33,1.26.7,2.35,1.68,3.24,2.79.89,1.12,1.58,2.38,2.12,3.69.53,1.31.93,2.68,1.12,4.08-.58-2.75-1.71-5.42-3.51-7.55-.89-1.06-1.97-1.98-3.19-2.62-1.21-.67-2.57-1.03-3.93-1.18-2.74-.3-5.53.58-7.74,2.21-2.21,1.63-4.02,3.9-4.93,6.46-.22.64-.37,1.31-.35,1.95.02.64.24,1.25.75,1.51.24.14.57.19.86.2.28,0,.52-.12.72-.32.4-.42.57-1.1.63-1.76.11-1.34-.17-2.73-.65-4.01-.49-1.28-1.21-2.48-2.14-3.48-.93-1-2.1-1.78-3.4-2.21-1.3-.43-2.72-.47-4.07-.18-2.7.57-5.2,2.26-6.69,4.66Z"/>
    <path class="cls-12" d="M119.72,70.1c-.08-2.82-.68-5.66-1.99-8.14-.66-1.23-1.53-2.36-2.68-3.12-1.14-.74-2.56-1.05-3.89-.83-1.34.21-2.52,1.02-3.35,2.08-.42.53-.74,1.14-.97,1.77-.22.63-.34,1.31-.25,1.94.05.31.16.59.35.79.09.1.2.17.32.22.06.03.13.03.2.05.07.01.11,0,.16,0,.47-.09.93-.71,1.24-1.28.65-1.19,1.02-2.56,1.28-3.92.49-2.73.46-5.61-.39-8.24-.44-1.31-1.07-2.56-1.99-3.59-.91-1.02-2.02-1.87-3.32-2.39-.61-.34-1.29-.5-1.95-.72-.33-.13-.68-.13-1.02-.21-.34-.04-.68-.14-1.03-.13-1.39-.12-2.79.08-4.15.41-2.71.72-5.22,2.17-7.35,4.03,1-1.01,2.15-1.86,3.36-2.6,1.22-.73,2.52-1.36,3.89-1.76,1.38-.37,2.82-.61,4.26-.52.36-.02.72.08,1.07.12.35.07.72.07,1.07.19.69.21,1.4.36,2.05.7,1.35.5,2.58,1.39,3.55,2.48.98,1.09,1.67,2.41,2.13,3.78.91,2.77.96,5.73.47,8.56-.28,1.41-.66,2.82-1.38,4.12-.18.33-.39.64-.65.93-.27.28-.58.58-1.07.66-.26.02-.48-.02-.68-.1-.2-.08-.4-.21-.55-.37-.31-.33-.45-.74-.5-1.12-.11-.78.04-1.54.29-2.24.25-.7.61-1.35,1.07-1.93.9-1.17,2.25-2.04,3.73-2.24,1.47-.21,3,.17,4.21.99,1.21.84,2.09,2.05,2.73,3.32.64,1.29,1.06,2.66,1.34,4.06.28,1.4.41,2.82.36,4.24Z"/>
    <path class="cls-12" d="M271.17,105.87c-2.76-.58-5.67-.66-8.38.04-1.35.35-2.65.94-3.66,1.87-.99.94-1.62,2.25-1.72,3.59-.11,1.35.4,2.69,1.25,3.74.42.53.93.99,1.5,1.35.56.36,1.2.64,1.83.69.31.03.62-.02.84-.15.12-.06.21-.16.29-.26.04-.05.06-.12.1-.18.03-.06.02-.11.04-.16.02-.48-.47-1.06-.95-1.5-1.01-.91-2.25-1.59-3.51-2.16-2.54-1.11-5.34-1.76-8.11-1.54-1.37.12-2.74.44-3.95,1.09-1.21.65-2.29,1.53-3.1,2.67-.47.52-.79,1.14-1.15,1.73-.2.29-.29.63-.44.94-.12.32-.3.63-.37.97-.44,1.32-.57,2.73-.57,4.13.07,2.81.89,5.58,2.21,8.09-.74-1.21-1.31-2.52-1.74-3.88-.42-1.36-.73-2.76-.8-4.2-.04-1.43.06-2.88.49-4.27.07-.36.24-.68.36-1.02.15-.33.24-.69.43-.99.36-.62.68-1.28,1.16-1.83.8-1.2,1.95-2.19,3.24-2.88,1.29-.7,2.73-1.06,4.17-1.19,2.9-.24,5.8.41,8.44,1.54,1.31.6,2.59,1.3,3.68,2.3.28.25.53.53.75.84.21.33.43.7.39,1.2-.04.26-.13.46-.26.64-.13.18-.3.34-.49.44-.39.22-.82.26-1.21.23-.79-.08-1.48-.4-2.11-.8-.62-.41-1.17-.91-1.63-1.49-.93-1.15-1.46-2.66-1.31-4.15.14-1.48.86-2.88,1.95-3.87,1.1-.98,2.48-1.55,3.87-1.88,1.4-.32,2.84-.41,4.26-.35,1.42.06,2.84.26,4.2.64Z"/>
    <path class="cls-12" d="M228.71,61.5c-.47-1.63-.53-3.36-.27-5.04.26-1.68.83-3.33,1.76-4.78.92-1.45,2.19-2.7,3.74-3.5,1.54-.8,3.29-1.15,5.02-1.1,1.73.05,3.43.5,5,1.21,1.56.73,3.03,1.7,4.16,3.05.54.68,1.06,1.47,1.1,2.46.01.49-.19,1.01-.54,1.37-.35.33-.73.6-1.21.74-.47.14-1,.11-1.45-.06-.45-.17-.83-.45-1.16-.76-.66-.63-1.12-1.39-1.51-2.16-.76-1.57-1.17-3.27-1.36-4.97-.19-1.71-.14-3.44.16-5.14.57-3.38,2.32-6.64,5.09-8.73,1.38-1.03,2.92-1.86,4.59-2.28,1.66-.45,3.41-.53,5.1-.33,1.7.21,3.34.7,4.9,1.37,1.56.67,3.04,1.51,4.38,2.54-2.79-1.88-5.99-3.23-9.32-3.56-1.66-.17-3.35-.06-4.94.41-1.6.44-3.07,1.27-4.38,2.28-1.29,1.03-2.39,2.3-3.19,3.75-.81,1.44-1.34,3.03-1.62,4.66-.53,3.26-.19,6.72,1.19,9.71.35.73.79,1.44,1.36,1.98.56.54,1.29.9,1.98.68.34-.09.67-.32.93-.57.24-.25.37-.57.37-.93,0-.72-.44-1.45-.94-2.07-1.04-1.25-2.44-2.21-3.93-2.9-1.5-.7-3.13-1.12-4.77-1.19-1.64-.08-3.31.24-4.78.97-1.48.72-2.73,1.89-3.64,3.27-1.83,2.77-2.55,6.32-1.8,9.61Z"/>
    <g>
      <path class="cls-8" d="M149.16,235.88c-1.54-.48-3.17.37-3.66,1.9-.48,1.54.37,3.17,1.91,3.66,1.54.48,3.17-.37,3.66-1.91.48-1.54-.37-3.17-1.9-3.66ZM150.72,239.43c-.43,1.35-1.86,2.1-3.21,1.67-1.35-.43-2.1-1.86-1.67-3.21.43-1.35,1.86-2.1,3.21-1.67,1.35.42,2.1,1.86,1.67,3.21ZM149.16,235.88c-1.54-.48-3.17.37-3.66,1.9-.48,1.54.37,3.17,1.91,3.66,1.54.48,3.17-.37,3.66-1.91.48-1.54-.37-3.17-1.9-3.66ZM150.72,239.43c-.43,1.35-1.86,2.1-3.21,1.67-1.35-.43-2.1-1.86-1.67-3.21.43-1.35,1.86-2.1,3.21-1.67,1.35.42,2.1,1.86,1.67,3.21ZM149.16,235.88c-1.54-.48-3.17.37-3.66,1.9-.48,1.54.37,3.17,1.91,3.66,1.54.48,3.17-.37,3.66-1.91.48-1.54-.37-3.17-1.9-3.66ZM150.72,239.43c-.43,1.35-1.86,2.1-3.21,1.67-1.35-.43-2.1-1.86-1.67-3.21.43-1.35,1.86-2.1,3.21-1.67,1.35.42,2.1,1.86,1.67,3.21ZM150.13,232.8c-3.24-1.02-6.69.78-7.71,4.02-1.02,3.24.78,6.69,4.02,7.71,3.24,1.02,6.69-.78,7.71-4.02,1.02-3.24-.78-6.69-4.01-7.71ZM151.5,239.68c-.56,1.77-2.45,2.76-4.23,2.2-1.77-.56-2.76-2.45-2.2-4.23.56-1.77,2.46-2.76,4.23-2.2,1.77.56,2.76,2.45,2.2,4.23ZM151.06,239.54c.48-1.54-.37-3.17-1.9-3.66-1.54-.48-3.17.37-3.66,1.9-.48,1.54.37,3.17,1.91,3.66,1.54.48,3.17-.37,3.66-1.91ZM150.72,239.43c-.43,1.35-1.86,2.1-3.21,1.67-1.35-.43-2.1-1.86-1.67-3.21.43-1.35,1.86-2.1,3.21-1.67,1.35.42,2.1,1.86,1.67,3.21ZM149.16,235.88c-1.54-.48-3.17.37-3.66,1.9-.48,1.54.37,3.17,1.91,3.66,1.54.48,3.17-.37,3.66-1.91.48-1.54-.37-3.17-1.9-3.66ZM150.72,239.43c-.43,1.35-1.86,2.1-3.21,1.67-1.35-.43-2.1-1.86-1.67-3.21.43-1.35,1.86-2.1,3.21-1.67,1.35.42,2.1,1.86,1.67,3.21ZM149.16,235.88c-1.54-.48-3.17.37-3.66,1.9-.48,1.54.37,3.17,1.91,3.66,1.54.48,3.17-.37,3.66-1.91.48-1.54-.37-3.17-1.9-3.66ZM150.72,239.43c-.43,1.35-1.86,2.1-3.21,1.67-1.35-.43-2.1-1.86-1.67-3.21.43-1.35,1.86-2.1,3.21-1.67,1.35.42,2.1,1.86,1.67,3.21Z"/>
      <g>
        <polygon class="cls-8" points="147.64 244.64 145.38 243.93 145.01 245.56 147.01 246.2 147.64 244.64"/>
        <polygon class="cls-8" points="143.59 242.53 142.49 240.43 141.07 241.32 142.04 243.19 143.59 242.53"/>
        <polygon class="cls-8" points="142.21 238.17 142.93 235.92 141.29 235.54 140.66 237.54 142.21 238.17"/>
        <polygon class="cls-8" points="144.33 234.12 146.42 233.03 145.53 231.6 143.67 232.57 144.33 234.12"/>
        <polygon class="cls-8" points="148.68 232.75 150.94 233.46 151.32 231.82 149.31 231.19 148.68 232.75"/>
        <polygon class="cls-8" points="152.74 234.86 153.83 236.96 155.25 236.07 154.28 234.2 152.74 234.86"/>
        <polygon class="cls-8" points="154.11 239.22 153.4 241.47 155.03 241.85 155.66 239.84 154.11 239.22"/>
        <polygon class="cls-8" points="152 243.27 149.9 244.36 150.79 245.78 152.65 244.81 152 243.27"/>
      </g>
    </g>
    <g>
      <g>
        <path class="cls-12" d="M262.88,216.29c3.09-4.17,2.22-10.05-1.95-13.14-4.17-3.09-10.05-2.22-13.14,1.94-3.09,4.17-2.22,10.05,1.95,13.15,4.17,3.09,10.05,2.22,13.14-1.95ZM258.86,213.3c-1.45,1.95-4.19,2.35-6.14.91-1.95-1.45-2.35-4.19-.91-6.14,1.44-1.95,4.19-2.35,6.14-.91,1.95,1.44,2.35,4.19.91,6.14Z"/>
        <polygon class="cls-12" points="251.42 219 248.51 216.84 247.15 219.02 249.73 220.93 251.42 219"/>
        <polygon class="cls-12" points="246.62 213.92 246.09 210.35 243.59 210.92 244.06 214.1 246.62 213.92"/>
        <polygon class="cls-12" points="246.82 206.94 248.97 204.04 246.8 202.67 244.88 205.25 246.82 206.94"/>
        <polygon class="cls-12" points="251.89 202.14 255.47 201.61 254.89 199.11 251.72 199.58 251.89 202.14"/>
        <polygon class="cls-12" points="258.87 202.34 261.77 204.49 263.14 202.32 260.56 200.41 258.87 202.34"/>
        <polygon class="cls-12" points="263.67 207.42 264.2 210.99 266.7 210.42 266.23 207.24 263.67 207.42"/>
        <polygon class="cls-12" points="263.47 214.4 261.32 217.3 263.49 218.66 265.41 216.08 263.47 214.4"/>
        <polygon class="cls-12" points="258.4 219.19 254.82 219.72 255.39 222.22 258.57 221.75 258.4 219.19"/>
      </g>
      <path class="cls-12" d="M251.97,211.14l2,2.52,3.18-.47,1.18-2.99-1.99-2.52-3.18.47-1.18,2.99ZM255.75,209.85c.45.34.55.97.21,1.42-.33.45-.97.55-1.42.21-.45-.33-.55-.97-.21-1.42.34-.45.97-.55,1.42-.21Z"/>
    </g>
    <g>
      <path class="cls-12" d="M269.92,33.33c-1.35-.42-2.78.32-3.2,1.67-.42,1.35.32,2.78,1.67,3.2,1.34.42,2.77-.32,3.2-1.67.42-1.34-.32-2.78-1.67-3.2ZM271.29,36.44c-.37,1.18-1.63,1.84-2.81,1.46-1.18-.37-1.84-1.63-1.46-2.81.37-1.18,1.63-1.84,2.81-1.46,1.18.37,1.83,1.63,1.46,2.81ZM269.92,33.33c-1.35-.42-2.78.32-3.2,1.67-.42,1.35.32,2.78,1.67,3.2,1.34.42,2.77-.32,3.2-1.67.42-1.34-.32-2.78-1.67-3.2ZM271.29,36.44c-.37,1.18-1.63,1.84-2.81,1.46-1.18-.37-1.84-1.63-1.46-2.81.37-1.18,1.63-1.84,2.81-1.46,1.18.37,1.83,1.63,1.46,2.81ZM269.92,33.33c-1.35-.42-2.78.32-3.2,1.67-.42,1.35.32,2.78,1.67,3.2,1.34.42,2.77-.32,3.2-1.67.42-1.34-.32-2.78-1.67-3.2ZM271.29,36.44c-.37,1.18-1.63,1.84-2.81,1.46-1.18-.37-1.84-1.63-1.46-2.81.37-1.18,1.63-1.84,2.81-1.46,1.18.37,1.83,1.63,1.46,2.81ZM270.77,30.63c-2.84-.89-5.86.68-6.75,3.51-.89,2.83.68,5.85,3.51,6.75,2.83.89,5.85-.68,6.75-3.51.89-2.83-.68-5.85-3.51-6.75ZM271.97,36.65c-.49,1.55-2.15,2.42-3.7,1.93-1.55-.49-2.41-2.15-1.93-3.7.49-1.55,2.15-2.41,3.7-1.93,1.55.49,2.41,2.15,1.92,3.7ZM271.59,36.53c.42-1.34-.32-2.78-1.67-3.2-1.35-.42-2.78.32-3.2,1.67-.42,1.35.32,2.78,1.67,3.2,1.34.42,2.77-.32,3.2-1.67ZM271.29,36.44c-.37,1.18-1.63,1.84-2.81,1.46-1.18-.37-1.84-1.63-1.46-2.81.37-1.18,1.63-1.84,2.81-1.46,1.18.37,1.83,1.63,1.46,2.81ZM269.92,33.33c-1.35-.42-2.78.32-3.2,1.67-.42,1.35.32,2.78,1.67,3.2,1.34.42,2.77-.32,3.2-1.67.42-1.34-.32-2.78-1.67-3.2ZM271.29,36.44c-.37,1.18-1.63,1.84-2.81,1.46-1.18-.37-1.84-1.63-1.46-2.81.37-1.18,1.63-1.84,2.81-1.46,1.18.37,1.83,1.63,1.46,2.81ZM269.92,33.33c-1.35-.42-2.78.32-3.2,1.67-.42,1.35.32,2.78,1.67,3.2,1.34.42,2.77-.32,3.2-1.67.42-1.34-.32-2.78-1.67-3.2ZM271.29,36.44c-.37,1.18-1.63,1.84-2.81,1.46-1.18-.37-1.84-1.63-1.46-2.81.37-1.18,1.63-1.84,2.81-1.46,1.18.37,1.83,1.63,1.46,2.81Z"/>
      <g>
        <polygon class="cls-12" points="268.59 40.99 266.62 40.37 266.29 41.8 268.04 42.35 268.59 40.99"/>
        <polygon class="cls-12" points="265.04 39.14 264.09 37.31 262.84 38.09 263.69 39.72 265.04 39.14"/>
        <polygon class="cls-12" points="263.84 35.33 264.47 33.36 263.04 33.03 262.48 34.78 263.84 35.33"/>
        <polygon class="cls-12" points="265.69 31.78 267.53 30.83 266.75 29.58 265.12 30.43 265.69 31.78"/>
        <polygon class="cls-12" points="269.51 30.58 271.48 31.21 271.81 29.78 270.05 29.22 269.51 30.58"/>
        <polygon class="cls-12" points="273.05 32.43 274.01 34.27 275.25 33.49 274.4 31.86 273.05 32.43"/>
        <polygon class="cls-12" points="274.25 36.25 273.63 38.22 275.06 38.55 275.61 36.79 274.25 36.25"/>
        <polygon class="cls-12" points="272.4 39.79 270.57 40.75 271.35 41.99 272.98 41.14 272.4 39.79"/>
      </g>
    </g>
    <g>
      <path class="cls-12" d="M243.71,131.32c-1.35-.42-2.78.32-3.2,1.67-.42,1.35.32,2.78,1.67,3.2,1.34.42,2.77-.32,3.2-1.67.42-1.34-.32-2.78-1.67-3.2ZM245.08,134.42c-.37,1.18-1.63,1.84-2.81,1.46s-1.84-1.63-1.46-2.81c.37-1.18,1.63-1.84,2.81-1.46,1.18.37,1.83,1.63,1.46,2.81ZM243.71,131.32c-1.35-.42-2.78.32-3.2,1.67-.42,1.35.32,2.78,1.67,3.2,1.34.42,2.77-.32,3.2-1.67.42-1.34-.32-2.78-1.67-3.2ZM245.08,134.42c-.37,1.18-1.63,1.84-2.81,1.46s-1.84-1.63-1.46-2.81c.37-1.18,1.63-1.84,2.81-1.46,1.18.37,1.83,1.63,1.46,2.81ZM243.71,131.32c-1.35-.42-2.78.32-3.2,1.67-.42,1.35.32,2.78,1.67,3.2,1.34.42,2.77-.32,3.2-1.67.42-1.34-.32-2.78-1.67-3.2ZM245.08,134.42c-.37,1.18-1.63,1.84-2.81,1.46s-1.84-1.63-1.46-2.81c.37-1.18,1.63-1.84,2.81-1.46,1.18.37,1.83,1.63,1.46,2.81ZM244.56,128.62c-2.84-.89-5.86.68-6.75,3.51-.89,2.83.68,5.85,3.51,6.75,2.83.89,5.85-.68,6.75-3.51.89-2.83-.68-5.85-3.51-6.75ZM245.75,134.64c-.49,1.55-2.15,2.42-3.7,1.93s-2.41-2.15-1.93-3.7c.49-1.55,2.15-2.41,3.7-1.93,1.55.49,2.41,2.15,1.92,3.7ZM245.37,134.52c.42-1.34-.32-2.78-1.67-3.2-1.35-.42-2.78.32-3.2,1.67-.42,1.35.32,2.78,1.67,3.2,1.34.42,2.77-.32,3.2-1.67ZM245.08,134.42c-.37,1.18-1.63,1.84-2.81,1.46s-1.84-1.63-1.46-2.81c.37-1.18,1.63-1.84,2.81-1.46,1.18.37,1.83,1.63,1.46,2.81ZM243.71,131.32c-1.35-.42-2.78.32-3.2,1.67-.42,1.35.32,2.78,1.67,3.2,1.34.42,2.77-.32,3.2-1.67.42-1.34-.32-2.78-1.67-3.2ZM245.08,134.42c-.37,1.18-1.63,1.84-2.81,1.46s-1.84-1.63-1.46-2.81c.37-1.18,1.63-1.84,2.81-1.46,1.18.37,1.83,1.63,1.46,2.81ZM243.71,131.32c-1.35-.42-2.78.32-3.2,1.67-.42,1.35.32,2.78,1.67,3.2,1.34.42,2.77-.32,3.2-1.67.42-1.34-.32-2.78-1.67-3.2ZM245.08,134.42c-.37,1.18-1.63,1.84-2.81,1.46s-1.84-1.63-1.46-2.81c.37-1.18,1.63-1.84,2.81-1.46,1.18.37,1.83,1.63,1.46,2.81Z"/>
      <g>
        <polygon class="cls-12" points="242.38 138.98 240.41 138.36 240.08 139.79 241.83 140.34 242.38 138.98"/>
        <polygon class="cls-12" points="238.83 137.13 237.88 135.3 236.63 136.08 237.48 137.71 238.83 137.13"/>
        <polygon class="cls-12" points="237.63 133.32 238.25 131.35 236.82 131.01 236.27 132.77 237.63 133.32"/>
        <polygon class="cls-12" points="239.48 129.77 241.32 128.82 240.54 127.57 238.91 128.42 239.48 129.77"/>
        <polygon class="cls-12" points="243.29 128.57 245.27 129.19 245.6 127.76 243.84 127.21 243.29 128.57"/>
        <polygon class="cls-12" points="246.84 130.42 247.79 132.25 249.04 131.48 248.19 129.85 246.84 130.42"/>
        <polygon class="cls-12" points="248.04 134.23 247.42 136.21 248.85 136.54 249.4 134.78 248.04 134.23"/>
        <polygon class="cls-12" points="246.19 137.78 244.36 138.73 245.14 139.98 246.77 139.13 246.19 137.78"/>
      </g>
    </g>
    <g>
      <g>
        <path class="cls-12" d="M93.7,54.17c1.06-4.34-1.6-8.72-5.94-9.77-4.34-1.06-8.72,1.6-9.78,5.94-1.06,4.34,1.6,8.72,5.95,9.78,4.34,1.06,8.72-1.6,9.77-5.95ZM89.51,53.15c-.49,2.03-2.54,3.27-4.56,2.78-2.03-.49-3.27-2.54-2.78-4.57.49-2.03,2.54-3.27,4.57-2.78,2.03.49,3.27,2.54,2.78,4.56Z"/>
        <polygon class="cls-12" points="85.52 60.16 82.5 59.43 82.14 61.61 84.83 62.26 85.52 60.16"/>
        <polygon class="cls-12" points="80.01 57.74 78.4 55.08 76.61 56.38 78.04 58.74 80.01 57.74"/>
        <polygon class="cls-12" points="77.83 52.14 78.57 49.12 76.39 48.76 75.73 51.45 77.83 52.14"/>
        <polygon class="cls-12" points="80.25 46.63 82.91 45.02 81.62 43.22 79.26 44.66 80.25 46.63"/>
        <polygon class="cls-12" points="85.86 44.45 88.88 45.19 89.23 43.01 86.54 42.35 85.86 44.45"/>
        <polygon class="cls-12" points="91.36 46.87 92.98 49.53 94.77 48.24 93.33 45.87 91.36 46.87"/>
        <polygon class="cls-12" points="93.54 52.48 92.81 55.5 94.99 55.85 95.64 53.16 93.54 52.48"/>
        <polygon class="cls-12" points="91.12 57.98 88.46 59.6 89.76 61.39 92.12 59.95 91.12 57.98"/>
      </g>
      <path class="cls-12" d="M83.32,53.74l2.43,1.33,2.36-1.44-.06-2.76-2.42-1.33-2.36,1.44.06,2.77ZM85.89,51.46c.47.11.76.59.64,1.06-.11.47-.59.76-1.06.64-.47-.11-.76-.59-.64-1.06.11-.47.59-.76,1.06-.64Z"/>
    </g>
  </g>
  <g>
    <g>
      <path class="cls-7" d="M276.54,137.81c-1.85-2.81-2.88-5.97-2.88-9.31,0-11.79,12.95-21.36,28.92-21.36s28.91,9.56,28.91,21.36-12.94,21.36-28.91,21.36c-7.74,0-14.76-2.24-19.95-5.91l-9.96,2.53,3.87-8.67Z"/>
      <path class="cls-1" d="M276.54,137.81c-1.74-2.59-2.83-5.66-2.95-8.8-.09-3.14.69-6.32,2.3-9.03,1.58-2.74,3.82-5.04,6.36-6.9,2.54-1.87,5.4-3.28,8.39-4.27,2.99-1,6.1-1.6,9.24-1.85,3.14-.23,6.31-.03,9.41.48.77.16,1.56.26,2.32.47l2.28.61,2.23.79c.74.27,1.45.63,2.17.94,2.85,1.35,5.52,3.13,7.76,5.37,2.24,2.23,4.05,4.96,5,8.01.95,3.04,1.02,6.38.09,9.44-.9,3.07-2.66,5.82-4.87,8.08-2.21,2.27-4.86,4.08-7.7,5.46-2.83,1.4-5.88,2.31-8.98,2.88-3.1.53-6.26.76-9.4.54-3.14-.2-6.26-.77-9.25-1.76-2.98-.98-5.86-2.36-8.41-4.19l.13.02-9.98,2.45-.15.04.06-.14,3.94-8.64ZM276.54,137.81l-3.8,8.7-.09-.1,9.94-2.61.07-.02.06.04c5.13,3.54,11.32,5.38,17.51,5.71,3.1.19,6.22-.06,9.27-.61,3.05-.57,6.05-1.47,8.82-2.85,2.77-1.37,5.36-3.14,7.51-5.36,2.14-2.21,3.84-4.88,4.69-7.83.88-2.94.8-6.13-.11-9.05-.91-2.93-2.64-5.57-4.81-7.75-2.18-2.18-4.78-3.93-7.57-5.27-.71-.31-1.4-.66-2.13-.93l-2.19-.78-2.24-.61c-.75-.2-1.52-.31-2.28-.47-3.06-.52-6.17-.71-9.27-.51-3.1.22-6.17.78-9.12,1.74-2.95.95-5.79,2.32-8.31,4.13-2.52,1.81-4.74,4.06-6.34,6.73-1.63,2.65-2.44,5.77-2.41,8.88.06,3.12,1.1,6.19,2.8,8.81Z"/>
    </g>
    <g>
      <path class="cls-12" d="M287.7,132v1.59h-6.47v-9.32h6.35v1.59h-4.54v2.24h3.92v1.47h-3.92v2.43h4.66Z"/>
      <path class="cls-12" d="M289.12,133.59v-9.32h4.12c.43,0,.82.09,1.19.27.36.18.68.42.94.71.26.29.47.63.62,1,.15.37.22.75.22,1.12,0,.6-.15,1.15-.45,1.65-.3.49-.71.85-1.23,1.07l2.13,3.5h-2.03l-1.9-3.12h-1.79v3.12h-1.81ZM290.93,128.88h2.27c.17,0,.32-.04.47-.12.14-.08.27-.19.37-.32.11-.14.19-.3.25-.48.06-.18.09-.38.09-.59s-.04-.42-.11-.6c-.07-.18-.16-.34-.28-.48-.12-.14-.25-.24-.41-.32-.15-.07-.31-.11-.47-.11h-2.19v3.02Z"/>
      <path class="cls-12" d="M297.84,133.59v-9.32h4.12c.43,0,.82.09,1.19.27.36.18.68.42.94.71.26.29.47.63.62,1,.15.37.22.75.22,1.12,0,.6-.15,1.15-.45,1.65-.3.49-.71.85-1.23,1.07l2.13,3.5h-2.03l-1.9-3.12h-1.78v3.12h-1.81ZM299.66,128.88h2.27c.17,0,.32-.04.47-.12.14-.08.27-.19.37-.32.11-.14.19-.3.25-.48.06-.18.09-.38.09-.59s-.04-.42-.11-.6c-.07-.18-.16-.34-.28-.48-.12-.14-.25-.24-.41-.32-.15-.07-.31-.11-.47-.11h-2.19v3.02Z"/>
      <path class="cls-12" d="M310.55,133.66c-.68,0-1.3-.13-1.86-.4-.56-.27-1.03-.62-1.43-1.06-.4-.44-.71-.95-.93-1.52-.22-.57-.33-1.15-.33-1.75s.12-1.22.35-1.79c.23-.57.55-1.07.96-1.51.41-.44.89-.79,1.45-1.04.56-.26,1.17-.39,1.82-.39s1.29.14,1.84.41c.56.28,1.03.64,1.42,1.08.39.45.7.95.92,1.52.22.57.33,1.15.33,1.73,0,.62-.11,1.21-.34,1.78-.23.56-.54,1.06-.95,1.5-.4.43-.88.78-1.44,1.04-.56.26-1.17.39-1.82.39ZM307.85,128.93c0,.4.06.79.18,1.17.12.38.3.71.53,1s.52.52.85.7c.34.18.72.26,1.15.26s.82-.09,1.16-.27c.34-.18.62-.42.85-.72.23-.3.41-.63.53-1,.12-.37.18-.75.18-1.14s-.06-.79-.19-1.17c-.13-.38-.31-.71-.54-1-.23-.29-.52-.52-.85-.69-.34-.17-.72-.26-1.14-.26s-.83.09-1.17.27c-.34.18-.63.42-.85.71-.23.29-.4.63-.52,1-.12.37-.18.75-.18,1.14Z"/>
      <path class="cls-12" d="M316.5,133.59v-9.32h4.12c.43,0,.82.09,1.19.27.36.18.68.42.94.71.26.29.47.63.62,1,.15.37.22.75.22,1.12,0,.6-.15,1.15-.45,1.65-.3.49-.71.85-1.23,1.07l2.13,3.5h-2.03l-1.9-3.12h-1.79v3.12h-1.81ZM318.31,128.88h2.27c.17,0,.32-.04.47-.12.14-.08.27-.19.37-.32.11-.14.19-.3.25-.48.06-.18.09-.38.09-.59s-.04-.42-.11-.6c-.07-.18-.16-.34-.28-.48-.12-.14-.25-.24-.41-.32-.15-.07-.31-.11-.47-.11h-2.19v3.02Z"/>
    </g>
  </g>
</svg>