<?xml version="1.0" encoding="UTF-8"?>
<svg id="Layer_1" data-name="Layer 1" xmlns="http://www.w3.org/2000/svg" xmlns:xlink="http://www.w3.org/1999/xlink" viewBox="0 0 400 300">
  <defs>
    <style>
      .cls-1 {
        fill: #1a2f36;
      }

      .cls-1, .cls-2, .cls-3, .cls-4, .cls-5, .cls-6, .cls-7, .cls-8, .cls-9, .cls-10, .cls-11, .cls-12, .cls-13, .cls-14, .cls-15 {
        stroke-width: 0px;
      }

      .cls-2 {
        fill: #c7c7c6;
      }

      .cls-3 {
        fill: #006491;
      }

      .cls-16, .cls-6, .cls-17, .cls-18 {
        fill: none;
      }

      .cls-16, .cls-17, .cls-18 {
        stroke-miterlimit: 10;
      }

      .cls-16, .cls-18 {
        stroke: #ebebeb;
      }

      .cls-4 {
        fill: #37474f;
      }

      .cls-5, .cls-13 {
        fill: #2ea3dc;
      }

      .cls-7 {
        fill: #fff;
      }

      .cls-8 {
        fill: #455b64;
      }

      .cls-9 {
        fill: #dcdbdb;
      }

      .cls-10 {
        fill: #ffc829;
      }

      .cls-11 {
        fill: #59a3c1;
      }

      .cls-12 {
        fill: #263238;
      }

      .cls-19 {
        clip-path: url(#clippath);
      }

      .cls-13 {
        opacity: .1;
      }

      .cls-14 {
        fill: #ebebeb;
      }

      .cls-20 {
        mask: url(#mask);
      }

      .cls-15 {
        fill: #a6a5a5;
      }

      .cls-17 {
        stroke: #c7c7c6;
      }

      .cls-18 {
        stroke-width: .75px;
      }
    </style>
    <filter id="luminosity-noclip" x="399.16" y="-121.46" width="474.95" height="524.72" color-interpolation-filters="sRGB" filterUnits="userSpaceOnUse">
      <feFlood flood-color="#fff" result="bg"/>
      <feBlend in="SourceGraphic" in2="bg"/>
    </filter>
    <mask id="mask" x="399.16" y="-121.46" width="474.95" height="524.72" maskUnits="userSpaceOnUse"/>
    <clipPath id="clippath">
      <polygon class="cls-6" points="470 -74.31 470 374.31 616.4 374.31 736.61 -74.31 470 -74.31"/>
    </clipPath>
  </defs>
  <g>
    <rect class="cls-18" x="307.45" y="34.1" width="17.65" height="7.46" transform="translate(632.55 75.66) rotate(-180)"/>
    <rect class="cls-18" x="317.3" y="24.69" width="17.65" height="7.46" transform="translate(652.25 56.85) rotate(180)"/>
    <rect class="cls-18" x="195.87" y="107.5" width="17.65" height="7.46" transform="translate(409.39 222.45) rotate(180)"/>
    <rect class="cls-18" x="205.72" y="98.09" width="17.65" height="7.46" transform="translate(429.09 203.64) rotate(180)"/>
    <rect class="cls-18" x="215.52" y="107.5" width="17.65" height="7.46" transform="translate(448.7 222.45) rotate(180)"/>
    <rect class="cls-18" x="56.8" y="24.69" width="17.65" height="7.46" transform="translate(131.24 56.85) rotate(180)"/>
    <rect class="cls-18" x="66.64" y="200.06" width="17.65" height="7.46" transform="translate(150.93 407.58) rotate(180)"/>
    <rect class="cls-18" x="56.8" y="190.66" width="17.65" height="7.46" transform="translate(131.24 388.78) rotate(180)"/>
    <rect class="cls-18" x="307.45" y="200.06" width="17.65" height="7.46" transform="translate(632.55 407.59) rotate(-180)"/>
  </g>
  <g>
    <g>
      <polyline class="cls-16" points="168.43 274.51 168.43 190.75 186.24 166.44 186.24 120.89"/>
      <path class="cls-16" d="M184.66,119.33c0,.87.71,1.58,1.58,1.58s1.58-.71,1.58-1.58-.71-1.58-1.58-1.58-1.58.71-1.58,1.58Z"/>
    </g>
    <g>
      <polyline class="cls-16" points="173.01 274.51 173.01 193.69 190.83 169.37 190.83 137.55"/>
      <path class="cls-16" d="M189.25,135.99c0,.87.71,1.58,1.58,1.58s1.58-.71,1.58-1.58-.71-1.58-1.58-1.58-1.58.71-1.58,1.58Z"/>
    </g>
    <g>
      <line class="cls-16" x1="164" y1="274.51" x2="164" y2="163.59"/>
      <path class="cls-16" d="M162.42,162.01c0,.87.71,1.58,1.58,1.58s1.58-.71,1.58-1.58-.71-1.58-1.58-1.58-1.58.71-1.58,1.58Z"/>
    </g>
    <g>
      <polyline class="cls-16" points="159.75 274.51 159.75 218.14 147.65 195.32 147.65 154.42"/>
      <path class="cls-16" d="M146.07,152.84c0,.87.71,1.58,1.58,1.58s1.58-.71,1.58-1.58-.71-1.58-1.58-1.58-1.58.71-1.58,1.58Z"/>
    </g>
    <g>
      <polyline class="cls-16" points="155.52 274.51 155.52 220.58 141.26 195.35 141.26 168.42"/>
      <path class="cls-16" d="M139.67,166.83c0,.87.71,1.58,1.58,1.58s1.58-.71,1.58-1.58-.71-1.58-1.58-1.58-1.58.71-1.58,1.58Z"/>
    </g>
  </g>
  <g>
    <g>
      <line class="cls-17" x1="103.04" y1="18.57" x2="103.04" y2="-6.46"/>
      <g>
        <polygon class="cls-14" points="118.51 33.48 117.26 36.22 88.81 36.22 87.57 33.48 99.69 25.1 106.4 25.1 118.51 33.48"/>
        <polygon class="cls-9" points="107.24 17.02 106.4 25.1 99.69 25.1 98.84 17.02 107.24 17.02"/>
        <polygon class="cls-9" points="118.51 33.49 117.26 36.22 88.81 36.22 87.57 33.49 118.51 33.49"/>
      </g>
    </g>
    <g>
      <line class="cls-17" x1="164.93" y1="18.57" x2="164.93" y2="-6.46"/>
      <g>
        <polygon class="cls-14" points="180.4 33.48 179.15 36.22 150.7 36.22 149.46 33.48 161.57 25.1 168.28 25.1 180.4 33.48"/>
        <polygon class="cls-9" points="169.12 17.02 168.28 25.1 161.57 25.1 160.73 17.02 169.12 17.02"/>
        <polygon class="cls-9" points="180.39 33.49 179.15 36.22 150.7 36.22 149.46 33.49 180.39 33.49"/>
      </g>
    </g>
    <g>
      <line class="cls-17" x1="226.82" y1="18.57" x2="226.82" y2="-6.46"/>
      <g>
        <polygon class="cls-14" points="242.28 33.48 241.04 36.22 212.59 36.22 211.35 33.48 223.46 25.1 230.17 25.1 242.28 33.48"/>
        <polygon class="cls-9" points="231.01 17.02 230.17 25.1 223.46 25.1 222.62 17.02 231.01 17.02"/>
        <polygon class="cls-9" points="242.28 33.49 241.04 36.22 212.59 36.22 211.35 33.49 242.28 33.49"/>
      </g>
    </g>
    <g>
      <line class="cls-17" x1="288.7" y1="18.57" x2="288.7" y2="-6.46"/>
      <g>
        <polygon class="cls-14" points="304.17 33.48 302.93 36.22 274.48 36.22 273.24 33.48 285.35 25.1 292.06 25.1 304.17 33.48"/>
        <polygon class="cls-9" points="292.9 17.02 292.06 25.1 285.35 25.1 284.51 17.02 292.9 17.02"/>
        <polygon class="cls-9" points="304.17 33.49 302.93 36.22 274.48 36.22 273.24 33.49 304.17 33.49"/>
      </g>
    </g>
  </g>
  <ellipse class="cls-14" cx="151.74" cy="289.09" rx="70.93" ry="11.32"/>
  <g>
    <rect class="cls-4" x="207.45" y="111.13" width="43.34" height="163.41"/>
    <rect class="cls-8" x="250.79" y="111.13" width="79.76" height="163.41"/>
    <g>
      <rect class="cls-4" x="256.77" y="253.35" width="68.79" height="15.89"/>
      <g>
        <rect class="cls-8" x="259.67" y="255.97" width="39.16" height="1.34"/>
        <rect class="cls-8" x="259.67" y="258.3" width="39.16" height="1.34"/>
        <rect class="cls-8" x="259.67" y="260.62" width="39.16" height="1.34"/>
        <rect class="cls-8" x="259.67" y="262.95" width="39.16" height="1.34"/>
        <rect class="cls-8" x="259.67" y="265.27" width="39.16" height="1.34"/>
      </g>
      <g>
        <path class="cls-5" d="M305.96,257.3c0,.73-.6,1.33-1.33,1.33s-1.33-.6-1.33-1.33.6-1.33,1.33-1.33,1.33.6,1.33,1.33Z"/>
        <path class="cls-5" d="M310.35,257.3c0,.73-.6,1.33-1.33,1.33s-1.33-.6-1.33-1.33.6-1.33,1.33-1.33,1.33.6,1.33,1.33Z"/>
        <path class="cls-5" d="M314.73,257.3c0,.73-.6,1.33-1.33,1.33s-1.33-.6-1.33-1.33.6-1.33,1.33-1.33,1.33.6,1.33,1.33Z"/>
        <path class="cls-5" d="M319.11,257.3c0,.73-.6,1.33-1.33,1.33s-1.33-.6-1.33-1.33.6-1.33,1.33-1.33,1.33.6,1.33,1.33Z"/>
        <path class="cls-5" d="M323.5,257.3c0,.73-.6,1.33-1.33,1.33s-1.33-.6-1.33-1.33.6-1.33,1.33-1.33,1.33.6,1.33,1.33Z"/>
        <path class="cls-5" d="M305.96,261.29c0,.73-.6,1.33-1.33,1.33s-1.33-.6-1.33-1.33.6-1.33,1.33-1.33,1.33.6,1.33,1.33Z"/>
        <path class="cls-5" d="M310.35,261.29c0,.73-.6,1.33-1.33,1.33s-1.33-.6-1.33-1.33.6-1.33,1.33-1.33,1.33.6,1.33,1.33Z"/>
        <path class="cls-5" d="M314.73,261.29c0,.73-.6,1.33-1.33,1.33s-1.33-.6-1.33-1.33.6-1.33,1.33-1.33,1.33.6,1.33,1.33Z"/>
        <path class="cls-5" d="M319.11,261.29c0,.73-.6,1.33-1.33,1.33s-1.33-.6-1.33-1.33.6-1.33,1.33-1.33,1.33.6,1.33,1.33Z"/>
        <path class="cls-5" d="M323.5,261.29c0,.73-.6,1.33-1.33,1.33s-1.33-.6-1.33-1.33.6-1.33,1.33-1.33,1.33.6,1.33,1.33Z"/>
        <circle class="cls-5" cx="304.63" cy="265.28" r="1.33"/>
        <path class="cls-5" d="M310.35,265.28c0,.73-.6,1.33-1.33,1.33s-1.33-.6-1.33-1.33.6-1.33,1.33-1.33,1.33.6,1.33,1.33Z"/>
        <circle class="cls-5" cx="313.4" cy="265.28" r="1.33"/>
        <path class="cls-5" d="M319.11,265.28c0,.73-.6,1.33-1.33,1.33s-1.33-.6-1.33-1.33.6-1.33,1.33-1.33,1.33.6,1.33,1.33Z"/>
        <path class="cls-5" d="M323.5,265.28c0,.73-.6,1.33-1.33,1.33s-1.33-.6-1.33-1.33.6-1.33,1.33-1.33,1.33.6,1.33,1.33Z"/>
      </g>
      <rect class="cls-12" x="300.78" y="255.97" width=".77" height="10.64"/>
    </g>
    <g>
      <rect class="cls-4" x="256.77" y="234.2" width="68.79" height="15.89"/>
      <g>
        <rect class="cls-8" x="259.67" y="236.83" width="39.16" height="1.34"/>
        <rect class="cls-8" x="259.67" y="239.15" width="39.16" height="1.34"/>
        <rect class="cls-8" x="259.67" y="241.47" width="39.16" height="1.34"/>
        <rect class="cls-8" x="259.67" y="243.8" width="39.16" height="1.34"/>
        <rect class="cls-8" x="259.67" y="246.12" width="39.16" height="1.34"/>
      </g>
      <g>
        <path class="cls-5" d="M305.96,238.16c0,.73-.6,1.33-1.33,1.33s-1.33-.6-1.33-1.33.6-1.33,1.33-1.33,1.33.6,1.33,1.33Z"/>
        <path class="cls-5" d="M310.35,238.16c0,.73-.6,1.33-1.33,1.33s-1.33-.6-1.33-1.33.6-1.33,1.33-1.33,1.33.6,1.33,1.33Z"/>
        <path class="cls-5" d="M314.73,238.16c0,.73-.6,1.33-1.33,1.33s-1.33-.6-1.33-1.33.6-1.33,1.33-1.33,1.33.6,1.33,1.33Z"/>
        <path class="cls-5" d="M319.11,238.16c0,.73-.6,1.33-1.33,1.33s-1.33-.6-1.33-1.33.6-1.33,1.33-1.33,1.33.6,1.33,1.33Z"/>
        <path class="cls-5" d="M323.5,238.16c0,.73-.6,1.33-1.33,1.33s-1.33-.6-1.33-1.33.6-1.33,1.33-1.33,1.33.6,1.33,1.33Z"/>
        <path class="cls-5" d="M305.96,242.15c0,.73-.6,1.33-1.33,1.33s-1.33-.6-1.33-1.33.6-1.33,1.33-1.33,1.33.6,1.33,1.33Z"/>
        <path class="cls-5" d="M310.35,242.15c0,.73-.6,1.33-1.33,1.33s-1.33-.6-1.33-1.33.6-1.33,1.33-1.33,1.33.6,1.33,1.33Z"/>
        <path class="cls-5" d="M314.73,242.15c0,.73-.6,1.33-1.33,1.33s-1.33-.6-1.33-1.33.6-1.33,1.33-1.33,1.33.6,1.33,1.33Z"/>
        <path class="cls-5" d="M319.11,242.15c0,.73-.6,1.33-1.33,1.33s-1.33-.6-1.33-1.33.6-1.33,1.33-1.33,1.33.6,1.33,1.33Z"/>
        <path class="cls-5" d="M323.5,242.15c0,.73-.6,1.33-1.33,1.33s-1.33-.6-1.33-1.33.6-1.33,1.33-1.33,1.33.6,1.33,1.33Z"/>
        <path class="cls-5" d="M305.96,246.13c0,.73-.6,1.33-1.33,1.33s-1.33-.6-1.33-1.33.6-1.33,1.33-1.33,1.33.6,1.33,1.33Z"/>
        <path class="cls-5" d="M310.35,246.13c0,.73-.6,1.33-1.33,1.33s-1.33-.6-1.33-1.33.6-1.33,1.33-1.33,1.33.6,1.33,1.33Z"/>
        <path class="cls-5" d="M314.73,246.13c0,.73-.6,1.33-1.33,1.33s-1.33-.6-1.33-1.33.6-1.33,1.33-1.33,1.33.6,1.33,1.33Z"/>
        <path class="cls-5" d="M319.11,246.13c0,.73-.6,1.33-1.33,1.33s-1.33-.6-1.33-1.33.6-1.33,1.33-1.33,1.33.6,1.33,1.33Z"/>
        <path class="cls-5" d="M323.5,246.13c0,.73-.6,1.33-1.33,1.33s-1.33-.6-1.33-1.33.6-1.33,1.33-1.33,1.33.6,1.33,1.33Z"/>
      </g>
      <rect class="cls-12" x="300.78" y="236.83" width=".77" height="10.64"/>
    </g>
    <g>
      <rect class="cls-4" x="256.77" y="215.05" width="68.79" height="15.89"/>
      <g>
        <rect class="cls-8" x="259.67" y="217.68" width="39.16" height="1.34"/>
        <rect class="cls-8" x="259.67" y="220" width="39.16" height="1.34"/>
        <rect class="cls-8" x="259.67" y="222.33" width="39.16" height="1.34"/>
        <rect class="cls-8" x="259.67" y="224.65" width="39.16" height="1.34"/>
        <rect class="cls-8" x="259.67" y="226.98" width="39.16" height="1.34"/>
      </g>
      <g>
        <circle class="cls-5" cx="304.63" cy="219.01" r="1.33"/>
        <path class="cls-5" d="M310.35,219.01c0,.73-.6,1.33-1.33,1.33s-1.33-.6-1.33-1.33.6-1.33,1.33-1.33,1.33.6,1.33,1.33Z"/>
        <circle class="cls-5" cx="313.4" cy="219.01" r="1.33"/>
        <path class="cls-5" d="M319.11,219.01c0,.73-.6,1.33-1.33,1.33s-1.33-.6-1.33-1.33.6-1.33,1.33-1.33,1.33.6,1.33,1.33Z"/>
        <path class="cls-5" d="M323.5,219.01c0,.73-.6,1.33-1.33,1.33s-1.33-.6-1.33-1.33.6-1.33,1.33-1.33,1.33.6,1.33,1.33Z"/>
        <path class="cls-5" d="M305.96,223c0,.73-.6,1.33-1.33,1.33s-1.33-.6-1.33-1.33.6-1.33,1.33-1.33,1.33.6,1.33,1.33Z"/>
        <path class="cls-5" d="M310.35,223c0,.73-.6,1.33-1.33,1.33s-1.33-.6-1.33-1.33.6-1.33,1.33-1.33,1.33.6,1.33,1.33Z"/>
        <path class="cls-5" d="M314.73,223c0,.73-.6,1.33-1.33,1.33s-1.33-.6-1.33-1.33.6-1.33,1.33-1.33,1.33.6,1.33,1.33Z"/>
        <path class="cls-5" d="M319.11,223c0,.73-.6,1.33-1.33,1.33s-1.33-.6-1.33-1.33.6-1.33,1.33-1.33,1.33.6,1.33,1.33Z"/>
        <path class="cls-5" d="M323.5,223c0,.73-.6,1.33-1.33,1.33s-1.33-.6-1.33-1.33.6-1.33,1.33-1.33,1.33.6,1.33,1.33Z"/>
        <path class="cls-5" d="M305.96,226.99c0,.73-.6,1.33-1.33,1.33s-1.33-.6-1.33-1.33.6-1.33,1.33-1.33,1.33.6,1.33,1.33Z"/>
        <path class="cls-5" d="M310.35,226.99c0,.73-.6,1.33-1.33,1.33s-1.33-.6-1.33-1.33.6-1.33,1.33-1.33,1.33.6,1.33,1.33Z"/>
        <path class="cls-5" d="M314.73,226.99c0,.73-.6,1.33-1.33,1.33s-1.33-.6-1.33-1.33.6-1.33,1.33-1.33,1.33.6,1.33,1.33Z"/>
        <path class="cls-5" d="M319.11,226.99c0,.73-.6,1.33-1.33,1.33s-1.33-.6-1.33-1.33.6-1.33,1.33-1.33,1.33.6,1.33,1.33Z"/>
        <path class="cls-5" d="M323.5,226.99c0,.73-.6,1.33-1.33,1.33s-1.33-.6-1.33-1.33.6-1.33,1.33-1.33,1.33.6,1.33,1.33Z"/>
      </g>
      <rect class="cls-12" x="300.78" y="217.68" width=".77" height="10.64"/>
    </g>
    <g>
      <rect class="cls-4" x="256.77" y="195.91" width="68.79" height="15.89"/>
      <g>
        <rect class="cls-8" x="259.67" y="198.53" width="39.16" height="1.34"/>
        <rect class="cls-8" x="259.67" y="200.85" width="39.16" height="1.34"/>
        <rect class="cls-8" x="259.67" y="203.18" width="39.16" height="1.34"/>
        <rect class="cls-8" x="259.67" y="205.5" width="39.16" height="1.34"/>
        <rect class="cls-8" x="259.67" y="207.83" width="39.16" height="1.34"/>
      </g>
      <g>
        <path class="cls-5" d="M305.96,199.86c0,.73-.6,1.33-1.33,1.33s-1.33-.6-1.33-1.33.6-1.33,1.33-1.33,1.33.6,1.33,1.33Z"/>
        <path class="cls-5" d="M310.35,199.86c0,.73-.6,1.33-1.33,1.33s-1.33-.6-1.33-1.33.6-1.33,1.33-1.33,1.33.6,1.33,1.33Z"/>
        <path class="cls-5" d="M314.73,199.86c0,.73-.6,1.33-1.33,1.33s-1.33-.6-1.33-1.33.6-1.33,1.33-1.33,1.33.6,1.33,1.33Z"/>
        <path class="cls-5" d="M319.11,199.86c0,.73-.6,1.33-1.33,1.33s-1.33-.6-1.33-1.33.6-1.33,1.33-1.33,1.33.6,1.33,1.33Z"/>
        <path class="cls-5" d="M323.5,199.86c0,.73-.6,1.33-1.33,1.33s-1.33-.6-1.33-1.33.6-1.33,1.33-1.33,1.33.6,1.33,1.33Z"/>
        <circle class="cls-5" cx="304.63" cy="203.85" r="1.33"/>
        <path class="cls-5" d="M310.35,203.85c0,.73-.6,1.33-1.33,1.33s-1.33-.6-1.33-1.33.6-1.33,1.33-1.33,1.33.6,1.33,1.33Z"/>
        <circle class="cls-5" cx="313.4" cy="203.85" r="1.33"/>
        <path class="cls-5" d="M319.11,203.85c0,.73-.6,1.33-1.33,1.33s-1.33-.6-1.33-1.33.6-1.33,1.33-1.33,1.33.6,1.33,1.33Z"/>
        <path class="cls-5" d="M323.5,203.85c0,.73-.6,1.33-1.33,1.33s-1.33-.6-1.33-1.33.6-1.33,1.33-1.33,1.33.6,1.33,1.33Z"/>
        <circle class="cls-5" cx="304.63" cy="207.84" r="1.33"/>
        <path class="cls-5" d="M310.35,207.84c0,.73-.6,1.33-1.33,1.33s-1.33-.6-1.33-1.33.6-1.33,1.33-1.33,1.33.6,1.33,1.33Z"/>
        <circle class="cls-5" cx="313.4" cy="207.84" r="1.33"/>
        <path class="cls-5" d="M319.11,207.84c0,.73-.6,1.33-1.33,1.33s-1.33-.6-1.33-1.33.6-1.33,1.33-1.33,1.33.6,1.33,1.33Z"/>
        <path class="cls-5" d="M323.5,207.84c0,.73-.6,1.33-1.33,1.33s-1.33-.6-1.33-1.33.6-1.33,1.33-1.33,1.33.6,1.33,1.33Z"/>
      </g>
      <rect class="cls-12" x="300.78" y="198.53" width=".77" height="10.64"/>
    </g>
    <g>
      <rect class="cls-4" x="256.77" y="176.76" width="68.79" height="15.89"/>
      <g>
        <rect class="cls-8" x="259.67" y="179.38" width="39.16" height="1.34"/>
        <rect class="cls-8" x="259.67" y="181.71" width="39.16" height="1.34"/>
        <rect class="cls-8" x="259.67" y="184.03" width="39.16" height="1.34"/>
        <rect class="cls-8" x="259.67" y="186.36" width="39.16" height="1.34"/>
        <rect class="cls-8" x="259.67" y="188.68" width="39.16" height="1.34"/>
      </g>
      <g>
        <circle class="cls-5" cx="304.63" cy="180.71" r="1.33"/>
        <path class="cls-5" d="M310.35,180.71c0,.73-.6,1.33-1.33,1.33s-1.33-.6-1.33-1.33.6-1.33,1.33-1.33,1.33.6,1.33,1.33Z"/>
        <circle class="cls-5" cx="313.4" cy="180.71" r="1.33"/>
        <path class="cls-5" d="M319.11,180.71c0,.73-.6,1.33-1.33,1.33s-1.33-.6-1.33-1.33.6-1.33,1.33-1.33,1.33.6,1.33,1.33Z"/>
        <path class="cls-5" d="M323.5,180.71c0,.73-.6,1.33-1.33,1.33s-1.33-.6-1.33-1.33.6-1.33,1.33-1.33,1.33.6,1.33,1.33Z"/>
        <circle class="cls-5" cx="304.63" cy="184.7" r="1.33"/>
        <path class="cls-5" d="M310.35,184.7c0,.73-.6,1.33-1.33,1.33s-1.33-.6-1.33-1.33.6-1.33,1.33-1.33,1.33.6,1.33,1.33Z"/>
        <circle class="cls-5" cx="313.4" cy="184.7" r="1.33"/>
        <path class="cls-5" d="M319.11,184.7c0,.73-.6,1.33-1.33,1.33s-1.33-.6-1.33-1.33.6-1.33,1.33-1.33,1.33.6,1.33,1.33Z"/>
        <path class="cls-5" d="M323.5,184.7c0,.73-.6,1.33-1.33,1.33s-1.33-.6-1.33-1.33.6-1.33,1.33-1.33,1.33.6,1.33,1.33Z"/>
        <path class="cls-5" d="M305.96,188.69c0,.73-.6,1.33-1.33,1.33s-1.33-.6-1.33-1.33.6-1.33,1.33-1.33,1.33.6,1.33,1.33Z"/>
        <path class="cls-5" d="M310.35,188.69c0,.73-.6,1.33-1.33,1.33s-1.33-.6-1.33-1.33.6-1.33,1.33-1.33,1.33.6,1.33,1.33Z"/>
        <path class="cls-5" d="M314.73,188.69c0,.73-.6,1.33-1.33,1.33s-1.33-.6-1.33-1.33.6-1.33,1.33-1.33,1.33.6,1.33,1.33Z"/>
        <path class="cls-5" d="M319.11,188.69c0,.73-.6,1.33-1.33,1.33s-1.33-.6-1.33-1.33.6-1.33,1.33-1.33,1.33.6,1.33,1.33Z"/>
        <path class="cls-5" d="M323.5,188.69c0,.73-.6,1.33-1.33,1.33s-1.33-.6-1.33-1.33.6-1.33,1.33-1.33,1.33.6,1.33,1.33Z"/>
      </g>
      <rect class="cls-12" x="300.78" y="179.38" width=".77" height="10.64"/>
    </g>
    <g>
      <rect class="cls-4" x="256.77" y="157.61" width="68.79" height="15.89"/>
      <g>
        <rect class="cls-8" x="259.67" y="160.23" width="39.16" height="1.34"/>
        <rect class="cls-8" x="259.67" y="162.56" width="39.16" height="1.34"/>
        <rect class="cls-8" x="259.67" y="164.88" width="39.16" height="1.34"/>
        <rect class="cls-8" x="259.67" y="167.21" width="39.16" height="1.34"/>
        <rect class="cls-8" x="259.67" y="169.53" width="39.16" height="1.34"/>
      </g>
      <g>
        <path class="cls-5" d="M305.96,161.56c0,.73-.6,1.33-1.33,1.33s-1.33-.6-1.33-1.33.6-1.33,1.33-1.33,1.33.6,1.33,1.33Z"/>
        <path class="cls-5" d="M310.35,161.56c0,.73-.6,1.33-1.33,1.33s-1.33-.6-1.33-1.33.6-1.33,1.33-1.33,1.33.6,1.33,1.33Z"/>
        <path class="cls-5" d="M314.73,161.56c0,.73-.6,1.33-1.33,1.33s-1.33-.6-1.33-1.33.6-1.33,1.33-1.33,1.33.6,1.33,1.33Z"/>
        <path class="cls-5" d="M319.11,161.56c0,.73-.6,1.33-1.33,1.33s-1.33-.6-1.33-1.33.6-1.33,1.33-1.33,1.33.6,1.33,1.33Z"/>
        <path class="cls-5" d="M323.5,161.56c0,.73-.6,1.33-1.33,1.33s-1.33-.6-1.33-1.33.6-1.33,1.33-1.33,1.33.6,1.33,1.33Z"/>
        <path class="cls-5" d="M305.96,165.55c0,.73-.6,1.33-1.33,1.33s-1.33-.6-1.33-1.33.6-1.33,1.33-1.33,1.33.6,1.33,1.33Z"/>
        <path class="cls-5" d="M310.35,165.55c0,.73-.6,1.33-1.33,1.33s-1.33-.6-1.33-1.33.6-1.33,1.33-1.33,1.33.6,1.33,1.33Z"/>
        <path class="cls-5" d="M314.73,165.55c0,.73-.6,1.33-1.33,1.33s-1.33-.6-1.33-1.33.6-1.33,1.33-1.33,1.33.6,1.33,1.33Z"/>
        <path class="cls-5" d="M319.11,165.55c0,.73-.6,1.33-1.33,1.33s-1.33-.6-1.33-1.33.6-1.33,1.33-1.33,1.33.6,1.33,1.33Z"/>
        <path class="cls-5" d="M323.5,165.55c0,.73-.6,1.33-1.33,1.33s-1.33-.6-1.33-1.33.6-1.33,1.33-1.33,1.33.6,1.33,1.33Z"/>
        <path class="cls-5" d="M305.96,169.54c0,.73-.6,1.33-1.33,1.33s-1.33-.6-1.33-1.33.6-1.33,1.33-1.33,1.33.6,1.33,1.33Z"/>
        <path class="cls-5" d="M310.35,169.54c0,.73-.6,1.33-1.33,1.33s-1.33-.6-1.33-1.33.6-1.33,1.33-1.33,1.33.6,1.33,1.33Z"/>
        <path class="cls-5" d="M314.73,169.54c0,.73-.6,1.33-1.33,1.33s-1.33-.6-1.33-1.33.6-1.33,1.33-1.33,1.33.6,1.33,1.33Z"/>
        <path class="cls-5" d="M319.11,169.54c0,.73-.6,1.33-1.33,1.33s-1.33-.6-1.33-1.33.6-1.33,1.33-1.33,1.33.6,1.33,1.33Z"/>
        <path class="cls-5" d="M323.5,169.54c0,.73-.6,1.33-1.33,1.33s-1.33-.6-1.33-1.33.6-1.33,1.33-1.33,1.33.6,1.33,1.33Z"/>
      </g>
      <rect class="cls-12" x="300.78" y="160.23" width=".77" height="10.64"/>
    </g>
    <g>
      <rect class="cls-4" x="256.77" y="138.46" width="68.79" height="15.89"/>
      <g>
        <rect class="cls-8" x="259.67" y="141.09" width="39.16" height="1.34"/>
        <rect class="cls-8" x="259.67" y="143.41" width="39.16" height="1.34"/>
        <rect class="cls-8" x="259.67" y="145.74" width="39.16" height="1.34"/>
        <rect class="cls-8" x="259.67" y="148.06" width="39.16" height="1.34"/>
        <rect class="cls-8" x="259.67" y="150.38" width="39.16" height="1.34"/>
      </g>
      <g>
        <path class="cls-5" d="M305.96,142.42c0,.73-.6,1.33-1.33,1.33s-1.33-.6-1.33-1.33.6-1.33,1.33-1.33,1.33.6,1.33,1.33Z"/>
        <path class="cls-5" d="M310.35,142.42c0,.73-.6,1.33-1.33,1.33s-1.33-.6-1.33-1.33.6-1.33,1.33-1.33,1.33.6,1.33,1.33Z"/>
        <path class="cls-5" d="M314.73,142.42c0,.73-.6,1.33-1.33,1.33s-1.33-.6-1.33-1.33.6-1.33,1.33-1.33,1.33.6,1.33,1.33Z"/>
        <path class="cls-5" d="M319.11,142.42c0,.73-.6,1.33-1.33,1.33s-1.33-.6-1.33-1.33.6-1.33,1.33-1.33,1.33.6,1.33,1.33Z"/>
        <path class="cls-5" d="M323.5,142.42c0,.73-.6,1.33-1.33,1.33s-1.33-.6-1.33-1.33.6-1.33,1.33-1.33,1.33.6,1.33,1.33Z"/>
        <path class="cls-5" d="M305.96,146.41c0,.73-.6,1.33-1.33,1.33s-1.33-.6-1.33-1.33.6-1.33,1.33-1.33,1.33.6,1.33,1.33Z"/>
        <path class="cls-5" d="M310.35,146.41c0,.73-.6,1.33-1.33,1.33s-1.33-.6-1.33-1.33.6-1.33,1.33-1.33,1.33.6,1.33,1.33Z"/>
        <path class="cls-5" d="M314.73,146.41c0,.73-.6,1.33-1.33,1.33s-1.33-.6-1.33-1.33.6-1.33,1.33-1.33,1.33.6,1.33,1.33Z"/>
        <path class="cls-5" d="M319.11,146.41c0,.73-.6,1.33-1.33,1.33s-1.33-.6-1.33-1.33.6-1.33,1.33-1.33,1.33.6,1.33,1.33Z"/>
        <path class="cls-5" d="M323.5,146.41c0,.73-.6,1.33-1.33,1.33s-1.33-.6-1.33-1.33.6-1.33,1.33-1.33,1.33.6,1.33,1.33Z"/>
        <path class="cls-5" d="M305.96,150.4c0,.73-.6,1.33-1.33,1.33s-1.33-.6-1.33-1.33.6-1.33,1.33-1.33,1.33.6,1.33,1.33Z"/>
        <path class="cls-5" d="M310.35,150.4c0,.73-.6,1.33-1.33,1.33s-1.33-.6-1.33-1.33.6-1.33,1.33-1.33,1.33.6,1.33,1.33Z"/>
        <path class="cls-5" d="M314.73,150.4c0,.73-.6,1.33-1.33,1.33s-1.33-.6-1.33-1.33.6-1.33,1.33-1.33,1.33.6,1.33,1.33Z"/>
        <path class="cls-5" d="M319.11,150.4c0,.73-.6,1.33-1.33,1.33s-1.33-.6-1.33-1.33.6-1.33,1.33-1.33,1.33.6,1.33,1.33Z"/>
        <path class="cls-5" d="M323.5,150.4c0,.73-.6,1.33-1.33,1.33s-1.33-.6-1.33-1.33.6-1.33,1.33-1.33,1.33.6,1.33,1.33Z"/>
      </g>
      <rect class="cls-12" x="300.78" y="141.09" width=".77" height="10.64"/>
    </g>
    <g>
      <rect class="cls-4" x="256.77" y="119.32" width="68.79" height="15.89"/>
      <g>
        <rect class="cls-8" x="259.67" y="121.94" width="39.16" height="1.34"/>
        <rect class="cls-8" x="259.67" y="124.26" width="39.16" height="1.34"/>
        <rect class="cls-8" x="259.67" y="126.59" width="39.16" height="1.34"/>
        <rect class="cls-8" x="259.67" y="128.91" width="39.16" height="1.34"/>
        <rect class="cls-8" x="259.67" y="131.24" width="39.16" height="1.34"/>
      </g>
      <g>
        <path class="cls-5" d="M305.96,123.27c0,.73-.6,1.33-1.33,1.33s-1.33-.6-1.33-1.33.6-1.33,1.33-1.33,1.33.6,1.33,1.33Z"/>
        <path class="cls-5" d="M310.35,123.27c0,.73-.6,1.33-1.33,1.33s-1.33-.6-1.33-1.33.6-1.33,1.33-1.33,1.33.6,1.33,1.33Z"/>
        <path class="cls-5" d="M314.73,123.27c0,.73-.6,1.33-1.33,1.33s-1.33-.6-1.33-1.33.6-1.33,1.33-1.33,1.33.6,1.33,1.33Z"/>
        <path class="cls-5" d="M319.11,123.27c0,.73-.6,1.33-1.33,1.33s-1.33-.6-1.33-1.33.6-1.33,1.33-1.33,1.33.6,1.33,1.33Z"/>
        <path class="cls-5" d="M323.5,123.27c0,.73-.6,1.33-1.33,1.33s-1.33-.6-1.33-1.33.6-1.33,1.33-1.33,1.33.6,1.33,1.33Z"/>
        <circle class="cls-5" cx="304.63" cy="127.26" r="1.33"/>
        <path class="cls-5" d="M310.35,127.26c0,.73-.6,1.33-1.33,1.33s-1.33-.6-1.33-1.33.6-1.33,1.33-1.33,1.33.6,1.33,1.33Z"/>
        <circle class="cls-5" cx="313.4" cy="127.26" r="1.33"/>
        <path class="cls-5" d="M319.11,127.26c0,.73-.6,1.33-1.33,1.33s-1.33-.6-1.33-1.33.6-1.33,1.33-1.33,1.33.6,1.33,1.33Z"/>
        <path class="cls-5" d="M323.5,127.26c0,.73-.6,1.33-1.33,1.33s-1.33-.6-1.33-1.33.6-1.33,1.33-1.33,1.33.6,1.33,1.33Z"/>
        <path class="cls-5" d="M305.96,131.25c0,.73-.6,1.33-1.33,1.33s-1.33-.6-1.33-1.33.6-1.33,1.33-1.33,1.33.6,1.33,1.33Z"/>
        <path class="cls-5" d="M310.35,131.25c0,.73-.6,1.33-1.33,1.33s-1.33-.6-1.33-1.33.6-1.33,1.33-1.33,1.33.6,1.33,1.33Z"/>
        <path class="cls-5" d="M314.73,131.25c0,.73-.6,1.33-1.33,1.33s-1.33-.6-1.33-1.33.6-1.33,1.33-1.33,1.33.6,1.33,1.33Z"/>
        <path class="cls-5" d="M319.11,131.25c0,.73-.6,1.33-1.33,1.33s-1.33-.6-1.33-1.33.6-1.33,1.33-1.33,1.33.6,1.33,1.33Z"/>
        <path class="cls-5" d="M323.5,131.25c0,.73-.6,1.33-1.33,1.33s-1.33-.6-1.33-1.33.6-1.33,1.33-1.33,1.33.6,1.33,1.33Z"/>
      </g>
      <rect class="cls-12" x="300.78" y="121.94" width=".77" height="10.64"/>
    </g>
    <rect class="cls-4" x="223.66" y="106.09" width="90.68" height="5.04"/>
    <rect class="cls-12" x="214.44" y="249.53" width="10.13" height="10.13"/>
  </g>
  <g>
    <g>
      <path class="cls-12" d="M71.23,144.65v-9.59h1.51v9.59h-1.51Z"/>
      <path class="cls-12" d="M76.42,137.89v6.76h-1.51v-9.59h1.19l5.49,6.92v-6.9h1.53v9.58h-1.26l-5.43-6.76Z"/>
      <path class="cls-12" d="M92.31,136.39h-3.19v8.25h-1.53v-8.25h-3.2v-1.34h7.92v1.34Z"/>
      <path class="cls-12" d="M100.17,143.31v1.34h-6.58v-9.59h6.46v1.34h-4.94v2.73h4.28v1.26h-4.28v2.93h5.07Z"/>
      <path class="cls-12" d="M101.74,144.65v-9.59h4.17c.43,0,.83.09,1.2.27.36.18.68.42.94.71.26.29.47.63.61,1,.15.37.22.75.22,1.14,0,.32-.05.63-.14.93-.09.3-.22.57-.38.82-.16.25-.36.47-.59.66-.23.18-.49.32-.77.41l2.26,3.65h-1.72l-2.08-3.34h-2.22v3.34h-1.51ZM103.25,139.97h2.65c.22,0,.41-.05.59-.14.18-.09.33-.22.45-.39.13-.17.23-.36.3-.57.07-.22.11-.45.11-.69s-.04-.47-.13-.69c-.09-.22-.2-.41-.34-.57-.14-.16-.3-.29-.49-.38-.18-.09-.38-.14-.57-.14h-2.57v3.58Z"/>
      <path class="cls-12" d="M112.18,137.89v6.76h-1.51v-9.59h1.19l5.49,6.92v-6.9h1.53v9.58h-1.26l-5.43-6.76Z"/>
      <path class="cls-12" d="M123.86,135.05h1.32l3.78,9.59h-1.59l-1.01-2.61h-3.7l-1,2.61h-1.61l3.81-9.59ZM126.06,140.92l-1.54-4.12-1.59,4.12h3.13Z"/>
      <path class="cls-12" d="M130.15,144.65v-9.59h1.51v8.25h5.15v1.34h-6.66Z"/>
      <path class="cls-12" d="M146.69,137.31c-.09-.1-.22-.2-.39-.32-.17-.11-.37-.22-.6-.32-.23-.1-.48-.18-.76-.24-.27-.06-.56-.09-.84-.09-.64,0-1.11.12-1.41.35-.3.23-.45.56-.45.97,0,.23.05.43.14.57.09.15.24.28.44.39.2.11.45.21.74.3.3.09.64.18,1.04.28.49.12.93.25,1.32.39.39.14.72.32.99.53.27.21.48.46.63.76s.22.67.22,1.1c0,.49-.09.91-.28,1.26-.18.35-.44.64-.76.86-.32.22-.69.38-1.11.49s-.88.16-1.36.16c-.73,0-1.43-.11-2.11-.33-.68-.22-1.3-.54-1.84-.97l.69-1.3c.12.12.29.25.51.39.22.14.48.28.77.4.29.12.61.23.95.31.34.09.7.13,1.07.13.59,0,1.05-.1,1.38-.31.32-.21.49-.51.49-.92,0-.24-.06-.45-.18-.61-.12-.16-.3-.3-.52-.43-.23-.12-.5-.23-.82-.33s-.69-.2-1.11-.31c-.48-.13-.89-.26-1.25-.4-.36-.14-.65-.31-.88-.51-.23-.2-.41-.43-.53-.7-.12-.27-.18-.59-.18-.97,0-.47.09-.88.27-1.25.18-.36.43-.67.74-.92.31-.25.68-.43,1.1-.56.42-.13.88-.19,1.38-.19.65,0,1.25.1,1.8.31.55.21,1.03.46,1.45.77l-.69,1.24Z"/>
      <path class="cls-12" d="M155.85,143.31v1.34h-6.58v-9.59h6.46v1.34h-4.94v2.73h4.28v1.26h-4.28v2.93h5.07Z"/>
      <path class="cls-12" d="M157.42,144.65v-9.59h4.17c.43,0,.83.09,1.2.27.37.18.68.42.94.71.26.29.47.63.61,1,.15.37.22.75.22,1.14,0,.32-.05.63-.14.93-.09.3-.22.57-.38.82-.16.25-.36.47-.59.66-.23.18-.49.32-.77.41l2.26,3.65h-1.72l-2.08-3.34h-2.22v3.34h-1.51ZM158.93,139.97h2.65c.22,0,.41-.05.59-.14.18-.09.33-.22.45-.39.13-.17.23-.36.3-.57.07-.22.11-.45.11-.69s-.04-.47-.13-.69c-.09-.22-.2-.41-.34-.57-.14-.16-.3-.29-.49-.38-.18-.09-.38-.14-.57-.14h-2.57v3.58Z"/>
      <path class="cls-12" d="M166.72,135.05l2.89,7.69,2.88-7.69h1.61l-3.84,9.59h-1.3l-3.85-9.59h1.61Z"/>
      <path class="cls-12" d="M181.86,143.31v1.34h-6.58v-9.59h6.46v1.34h-4.94v2.73h4.28v1.26h-4.28v2.93h5.07Z"/>
      <path class="cls-12" d="M183.42,144.65v-9.59h4.17c.43,0,.83.09,1.2.27.36.18.68.42.94.71.26.29.47.63.61,1,.15.37.22.75.22,1.14,0,.32-.05.63-.14.93-.09.3-.22.57-.38.82-.16.25-.36.47-.59.66-.23.18-.49.32-.77.41l2.26,3.65h-1.72l-2.08-3.34h-2.22v3.34h-1.51ZM184.94,139.97h2.65c.22,0,.41-.05.59-.14.18-.09.33-.22.45-.39.13-.17.23-.36.3-.57.07-.22.11-.45.11-.69s-.04-.47-.13-.69c-.09-.22-.2-.41-.34-.57-.14-.16-.3-.29-.49-.38-.18-.09-.38-.14-.57-.14h-2.57v3.58Z"/>
    </g>
    <g>
      <path class="cls-12" d="M117.27,157.43v1.95h-6.74v-9.59h6.62v1.95h-4.4v1.86h3.78v1.8h-3.78v2.04h4.53Z"/>
      <path class="cls-12" d="M118.63,159.38v-9.59h4.32c.45,0,.87.09,1.25.28.38.19.71.44.99.74.28.31.5.65.66,1.04.16.39.24.78.24,1.18,0,.3-.04.58-.11.86-.07.27-.18.53-.31.78-.14.24-.3.46-.49.66-.19.19-.41.36-.66.49l2.11,3.57h-2.5l-1.84-3.09h-1.45v3.09h-2.22ZM120.84,154.35h2.03c.26,0,.49-.12.68-.37.19-.25.28-.57.28-.95s-.11-.71-.32-.95c-.22-.23-.45-.35-.7-.35h-1.96v2.62Z"/>
      <path class="cls-12" d="M127.68,159.38v-9.59h4.32c.45,0,.87.09,1.25.28.38.19.71.44.99.74.28.31.5.65.66,1.04.16.39.24.78.24,1.18,0,.3-.04.58-.11.86-.07.27-.18.53-.31.78-.14.24-.3.46-.49.66-.19.19-.41.36-.66.49l2.11,3.57h-2.5l-1.84-3.09h-1.45v3.09h-2.22ZM129.89,154.35h2.03c.26,0,.49-.12.68-.37.19-.25.28-.57.28-.95s-.11-.71-.32-.95c-.22-.23-.45-.35-.7-.35h-1.96v2.62Z"/>
      <path class="cls-12" d="M140.93,159.46c-.71,0-1.36-.14-1.95-.42-.59-.28-1.09-.65-1.5-1.1-.41-.45-.74-.97-.97-1.56-.23-.59-.34-1.19-.34-1.81s.12-1.24.36-1.82c.24-.59.57-1.1,1-1.55.43-.45.93-.8,1.52-1.07.59-.27,1.22-.4,1.92-.4s1.36.14,1.95.42c.59.28,1.09.65,1.5,1.11.41.46.73.98.96,1.57.23.59.34,1.18.34,1.78s-.12,1.24-.36,1.82c-.24.59-.57,1.1-.99,1.55-.42.45-.93.8-1.51,1.07-.59.27-1.23.41-1.92.41ZM138.43,154.6c0,.37.05.73.16,1.07.11.35.27.66.48.93.21.27.47.49.79.65.31.16.68.24,1.08.24s.79-.09,1.11-.26c.32-.17.58-.39.78-.67.21-.27.36-.59.47-.93.1-.35.16-.7.16-1.06s-.05-.73-.16-1.07c-.11-.35-.27-.65-.49-.92-.22-.27-.48-.48-.79-.63-.31-.16-.67-.24-1.07-.24s-.79.08-1.1.25c-.31.17-.57.38-.78.66-.21.27-.37.58-.47.93-.1.35-.16.7-.16,1.06Z"/>
      <path class="cls-12" d="M147,159.38v-9.59h4.32c.45,0,.87.09,1.25.28.38.19.71.44.99.74.28.31.5.65.66,1.04.16.39.24.78.24,1.18,0,.3-.04.58-.11.86-.07.27-.18.53-.31.78-.14.24-.3.46-.49.66-.19.19-.41.36-.66.49l2.11,3.57h-2.5l-1.84-3.09h-1.45v3.09h-2.22ZM149.21,154.35h2.03c.26,0,.49-.12.68-.37.19-.25.28-.57.28-.95s-.11-.71-.32-.95c-.22-.23-.45-.35-.7-.35h-1.96v2.62Z"/>
    </g>
    <g>
      <path class="cls-12" d="M84.38,69.04v14.8c1.03-1.47,2.48-2.6,4.36-3.41.99-.4,2.15-.61,3.48-.61,4.56,0,7.93,1.6,10.1,4.79,1.88,2.75,2.81,6.64,2.81,11.67v14.86c0,5.1-1.61,9.28-4.84,12.55-3.08,3.16-6.97,4.73-11.67,4.73s-8.33-1.65-11.34-4.95c-2.9-3.15-4.35-7.01-4.35-11.56v-1.65l9.96-.77.22,2.37c.26,2.75,1.38,4.59,3.36,5.5.59.29,1.21.44,1.87.44,4.26,0,6.38-2.22,6.38-6.66v-16.89c0-2.02-.74-3.69-2.21-5.01-.7-.62-1.68-.94-2.93-.94-1.84,0-3.21.72-4.09,2.15-.74,1.25-1.11,2.57-1.11,3.96v1.87h-10.4v-37.7h30.43v10.46h-20.03Z"/>
      <path class="cls-12" d="M146.84,111.91c0,4.59-1.61,8.48-4.84,11.67-3.23,3.19-7.1,4.79-11.61,4.79s-8.48-1.6-11.69-4.82c-3.21-3.21-4.82-7.09-4.82-11.64v-37.64c0-4.59,1.61-8.48,4.84-11.69,3.23-3.21,7.12-4.82,11.67-4.82s8.47,1.61,11.67,4.84c3.19,3.23,4.79,7.12,4.79,11.67v37.64ZM136.05,74.05c0-1.65-.59-3.06-1.76-4.24-1.17-1.17-2.59-1.76-4.24-1.76s-3.05.59-4.21,1.76c-1.16,1.17-1.73,2.59-1.73,4.24v37.7c0,1.65.58,3.06,1.73,4.24,1.16,1.17,2.56,1.76,4.21,1.76s3.06-.59,4.24-1.76c1.17-1.17,1.76-2.59,1.76-4.24v-37.7Z"/>
      <path class="cls-12" d="M188.77,111.91c0,4.59-1.61,8.48-4.84,11.67-3.23,3.19-7.1,4.79-11.61,4.79s-8.48-1.6-11.69-4.82c-3.21-3.21-4.82-7.09-4.82-11.64v-37.64c0-4.59,1.61-8.48,4.84-11.69,3.23-3.21,7.12-4.82,11.67-4.82s8.47,1.61,11.67,4.84c3.19,3.23,4.79,7.12,4.79,11.67v37.64ZM177.99,74.05c0-1.65-.59-3.06-1.76-4.24-1.17-1.17-2.59-1.76-4.24-1.76s-3.05.59-4.21,1.76c-1.16,1.17-1.73,2.59-1.73,4.24v37.7c0,1.65.58,3.06,1.73,4.24,1.16,1.17,2.56,1.76,4.21,1.76s3.06-.59,4.24-1.76,1.76-2.59,1.76-4.24v-37.7Z"/>
    </g>
  </g>
  <g>
    <rect class="cls-4" x="58.21" y="229.32" width="17.7" height="17.7"/>
    <circle class="cls-8" cx="67.06" cy="238.17" r="5.91"/>
    <rect class="cls-12" x="64.64" y="235.78" width="1.33" height="4.88"/>
    <rect class="cls-12" x="68.35" y="235.78" width="1.33" height="4.88"/>
  </g>
  <polygon class="cls-1" points="53.8 274.54 89.32 274.38 124.84 274.32 195.87 274.21 266.91 274.32 302.42 274.38 337.94 274.54 302.42 274.71 266.91 274.77 195.87 274.88 124.84 274.76 89.32 274.71 53.8 274.54"/>
  <g>
    <g>
      <g>
        <path class="cls-10" d="M114.61,257.84c.64,1.41-1.9,11.53-2.7,13.61-.8,2.08-3.59,13.68-4.95,14.19-1.36.5-7.95.36-8.88,0-.93-.36,0-2.34,1.07-3.03,1.07-.69,2.35-1.76,2.35-1.76,0,0-1.92-17.92-1.57-19.93.36-2.01,12.93-6.88,14.67-3.08Z"/>
        <path class="cls-3" d="M114.61,257.84c.64,1.41-1.9,11.53-2.7,13.61-.8,2.08-3.59,13.68-4.95,14.19-1.36.5-7.95.36-8.88,0-.93-.36,0-2.34,1.07-3.03,1.07-.69,2.35-1.76,2.35-1.76,0,0-1.92-17.92-1.57-19.93.36-2.01,12.93-6.88,14.67-3.08Z"/>
        <path class="cls-3" d="M100.83,284.85c.07-.35.22-.7.43-.99.21-.29.47-.55.76-.77.27-.2.61-.4.94-.46.04,0,.08.05.04.08-.12.11-.25.2-.37.32-.12.12-.24.23-.35.35-.22.23-.4.5-.56.77-.16.28-.32.56-.46.85-.14.29-.23.61-.34.91-.02.06-.11.06-.13,0-.08-.35-.04-.71.03-1.06Z"/>
        <path class="cls-3" d="M98.9,283.8c.35-.65.95-1.11,1.61-1.4.04-.02.09.03.05.07-.49.42-.97.87-1.28,1.44-.31.57-.47,1.27-.25,1.9.01.03-.03.04-.05.02-.42-.6-.42-1.39-.08-2.03Z"/>
      </g>
      <path class="cls-3" d="M100.52,270.8l9.06,8.57c1-3.29,1.93-6.86,2.34-7.92.8-2.08,3.34-12.2,2.7-13.62-1.74-3.79-14.32,1.08-14.67,3.09-.17.95.17,5.41.57,9.88Z"/>
    </g>
    <g>
      <g>
        <path class="cls-5" d="M148.82,267.96c.37.35,3.93-3.03,4.48-4.61.55-1.58-1.73-6.04-1.31-6.8s2.36-1.37,3.37-.2c1.01,1.17,3.59,7.56,3.05,10.29-.54,2.73-6.04,8.84-6.61,8.81-.57-.03-2.98-7.5-2.98-7.5Z"/>
        <path class="cls-13" d="M148.82,267.97s2.4,7.46,2.98,7.49c.42.02,3.47-3.24,5.3-6.06l-4.99-4.21c-1.26,1.49-3.02,3.01-3.28,2.77Z"/>
      </g>
      <path class="cls-5" d="M128.68,237.13h-29.6s-2.2,19.49-1.96,22.07c.24,2.58,13.25,21.69,17.28,24.16,4.09,2.5,27.21,2.59,32.85,1.35,4.38-.96,8.04-6.56,6.22-15.18-.8-3.77-11.07-12.75-12.5-14.47-1.43-1.72-12.3-17.91-12.3-17.91Z"/>
      <path class="cls-11" d="M97.12,259.2c.24,2.58,13.24,21.69,17.28,24.15,4.09,2.5,27.21,2.59,32.85,1.35,4.38-.97,8.05-6.57,6.22-15.19-.79-3.77-11.06-12.75-12.5-14.47-.88-1.05-5.29-7.53-8.58-12.4-2.09-3.08-3.72-5.51-3.72-5.51h-29.59s-.55,4.89-1.07,10.1c-.52,5.19-1.01,10.68-.89,11.97Z"/>
      <path class="cls-13" d="M98.01,247.23c15.9,4.91,30.05-2.07,34.39-4.59-2.09-3.08-3.72-5.51-3.72-5.51h-29.59s-.55,4.89-1.07,10.1Z"/>
    </g>
    <g>
      <path class="cls-5" d="M147.82,268.57s-8.15-5.11-13.86-4.19c-5.71.92-7.73,12.65-4.99,19.25,0,0-5.21,1.55-5.21,4.07,0,1.43,2.98,1.89,7.27,1.79,4.3-.1,12.83-.19,13.02-1.27.19-1.08-.56-2.57-.56-2.57,0,0,7.71-.87,9.22-5.98,1.51-5.11-3.61-10.25-4.9-11.11Z"/>
      <g>
        <path class="cls-13" d="M136.7,284.22c2.16.93,4.52,1.37,6.86,1.52.04,0,.06.08,0,.08-2.42.27-4.79-.33-6.89-1.55-.03-.02,0-.07.03-.06Z"/>
        <path class="cls-13" d="M127.11,289.53c.21-.98.98-1.74,1.77-2.29.46-.32.97-.58,1.51-.76.61-.21,1.24-.32,1.86-.51.05-.02.09.06.04.08-.53.18-1.04.45-1.53.71-.49.26-.98.54-1.44.86-.8.54-1.41,1.24-1.99,2-.06.08-.23.04-.2-.08Z"/>
        <path class="cls-13" d="M128.17,285.48c.05,0,.07.06.02.08-1.57.58-2.83,1.97-3.51,3.48-.03.06-.15.06-.14-.02.21-1.87,1.8-3.27,3.62-3.54Z"/>
        <path class="cls-13" d="M125.63,285.11s.01.04.03.03c.13-.03,1.59-1.01,3.21-1.47.13.23.27.47.43.69.03.05.1,0,.07-.04-1.01-2.03-1.42-4.33-1.43-6.59,0-1.2.09-2.41.21-3.61,0,0,0-.01,0-.02.31-2.11.91-4.17,1.93-6.01.62-1.15,1.42-2.25,2.51-2.89,1.09-.63,2.46-.73,3.77-.68,1.33.07,2.65.35,3.93.73,1.29.35,2.57.82,3.81,1.35-2.38-1.28-4.96-2.29-7.71-2.58-1.37-.13-2.83-.04-4.11.66-1.27.73-2.13,1.9-2.8,3.09-1.29,2.45-1.93,5.19-2.05,7.92-.01.31-.03.63-.03.95h0c-.02.43-.03.85-.01,1.27.05,1.97.45,3.95,1.41,5.69-1.45.29-2.29.71-3.19,1.52Z"/>
      </g>
    </g>
    <g>
      <path class="cls-5" d="M124.18,260.34c.64,1.41-1.9,11.53-2.7,13.61-.8,2.08-3.59,13.68-4.95,14.19-1.36.5-7.95.36-8.88,0-.93-.36,0-2.34,1.07-3.03,1.07-.69,2.35-1.76,2.35-1.76,0,0-1.92-17.92-1.57-19.93.36-2.01,12.93-6.88,14.67-3.08Z"/>
      <g>
        <path class="cls-13" d="M119.73,279.58c.61-1.83,1.4-3.59,2.01-5.42.02-.07.14-.04.12.03-.47,1.47-.83,2.97-1.26,4.45.06-.1.12-.2.19-.3.38-.59.85-1.17,1.05-1.85.02-.07.14-.04.12.03-.09.32-.24.6-.39.89-.17.33-.35.65-.53.98-.23.42-.48.84-.74,1.25,0,.03-.02.06-.03.09-.61,1.83-1.21,3.66-2.02,5.41-.04.09-.18.06-.16-.05.42-1.88,1.04-3.69,1.65-5.52Z"/>
        <path class="cls-13" d="M109.25,266.29s.07-.05.08,0c.19,1.36.27,2.73.41,4.1.14,1.42.32,2.83.47,4.25.31,2.82.78,5.63,1.01,8.46,0,.12-.21.14-.24.02-.74-2.73-1.07-5.53-1.37-8.32-.15-1.38-.23-2.77-.3-4.16-.07-1.44-.15-2.9-.07-4.34Z"/>
        <path class="cls-13" d="M110.07,287.22c.07-.35.22-.7.43-.99.21-.29.47-.55.76-.77.27-.2.61-.4.94-.46.04,0,.08.05.04.08-.12.11-.25.2-.37.32-.12.12-.24.23-.35.35-.22.23-.4.5-.56.77-.16.28-.32.56-.46.85-.14.29-.23.61-.34.91-.02.06-.11.06-.13,0-.08-.35-.04-.71.03-1.06Z"/>
        <path class="cls-13" d="M108.14,286.16c.35-.65.95-1.11,1.61-1.4.04-.02.09.03.05.07-.49.42-.97.87-1.28,1.44-.31.57-.47,1.27-.25,1.9.01.03-.03.04-.05.02-.42-.6-.42-1.39-.08-2.03Z"/>
      </g>
    </g>
    <g>
      <g>
        <path class="cls-5" d="M110.41,210.03c.32-1.17-2.6-5.3-3.71-6.7-1.11-1.39-7.24-3.48-9.2-2.41-.77.42-2.2,3.36-4.12,5.92-2.98,3.96-6.47,8.11-5.2,9.23,3.07,2.71,10.07-1.57,12.34-3,2.27-1.44,4.35-3.18,4.9-3.12.73.08,2.27,1.24,2.88,1.31,1.46.16,2.1-1.22,2.1-1.22Z"/>
        <path class="cls-3" d="M110.41,210.03c.32-1.17-2.6-5.3-3.71-6.7-1.11-1.39-7.24-3.48-9.2-2.41-.77.42-2.2,3.36-4.12,5.92-2.98,3.96-6.47,8.11-5.2,9.23,3.07,2.71,10.07-1.57,12.34-3,2.27-1.44,4.35-3.18,4.9-3.12.73.08,2.27,1.24,2.88,1.31,1.46.16,2.1-1.22,2.1-1.22Z"/>
      </g>
      <path class="cls-5" d="M124.52,205.89c7.15,4.28,10.32,15.65,10.52,17.47.16,1.48,3.57,6.73,2.96,12.38-.39,3.63-6.91,8.45-12.22,8.4-.98,0-9.24,2.99-16.21,2.5-6.97-.48-12.26-5.43-12.47-5.85-.21-.42-5.86-1.24-6.21-7.07-.57-9.31,8.93-25.17,11.65-27.33,4.5-3.59,17.12-3.4,21.98-.5Z"/>
      <g>
        <path class="cls-5" d="M121.16,210.8c-.14-1.27,3.58-5.07,4.96-6.33s8.09-2.41,9.95-.97c.73.56,1.72,3.85,3.29,6.83,2.44,4.6,5.36,9.49,3.86,10.44-3.64,2.3-10.19-3.3-12.31-5.17-2.12-1.87-3.98-4.03-4.57-4.06-.77-.04-2.56.91-3.21.88-1.54-.07-1.98-1.62-1.98-1.62Z"/>
        <path class="cls-3" d="M121.16,210.8c-.14-1.27,3.58-5.07,4.96-6.33s8.09-2.41,9.95-.97c.73.56,1.72,3.85,3.29,6.83,2.44,4.6,5.36,9.49,3.86,10.44-3.64,2.3-10.19-3.3-12.31-5.17-2.12-1.87-3.98-4.03-4.57-4.06-.77-.04-2.56.91-3.21.88-1.54-.07-1.98-1.62-1.98-1.62Z"/>
      </g>
      <path class="cls-3" d="M108.09,226.78c4.39.04,6.38,4.74,6.91,5.96.53,1.22,3.23,4.03,3.31,6.95.07,2.93-5.49,6.2-11.36,5.16-5.84-1.03-8.94-4.32-8.9-7.3.03-2.39,2.28-4.46,2.53-5.1.25-.63,3.51-5.72,7.51-5.68Z"/>
      <path class="cls-3" d="M118.88,235.03c.58.66,1.08,1.41,1.47,2.21.4.8.71,1.65.86,2.55.14.89.13,1.87-.29,2.73-.2.43-.5.8-.85,1.1-.37.28-.77.49-1.19.62.74-.49,1.31-1.14,1.56-1.91.26-.76.25-1.61.11-2.43-.13-.83-.39-1.64-.68-2.45-.3-.8-.63-1.61-1-2.41Z"/>
      <path class="cls-3" d="M98.78,233.28c-.38.47-.74.93-1.07,1.4-.32.47-.64.95-.85,1.46-.22.5-.36,1.03-.39,1.57-.02.55.13,1.09.31,1.67-.42-.43-.75-1-.83-1.64-.08-.64.05-1.29.3-1.87.26-.58.63-1.08,1.06-1.52.43-.43.92-.81,1.47-1.07Z"/>
      <g>
        <path class="cls-12" d="M167.31,296.05c-7.18,0-15.11-.12-23.07-.27-4.11-.08-7.35-.14-9.37-.14-10.35,0-13.33-13.3-16.21-26.16-.4-1.79-.8-3.59-1.22-5.35-.82-3.44-1.5-6.92-2.16-10.28-2.03-10.4-3.78-19.39-8.37-19.88-6.06-.64-11.45,8.41-13.42,22.55l-1.32-.18c2.08-14.9,8.05-24.43,14.88-23.69,5.56.6,7.4,10.03,9.53,20.95.65,3.35,1.33,6.81,2.15,10.23.42,1.77.83,3.57,1.23,5.37,2.89,12.92,5.63,25.12,14.91,25.12,2.04,0,5.29.06,9.4.14,9.01.17,21.35.4,31.8.19,16.94-.33,18.95-1.67,19.16-2.07,0-2.77-17.89-6.11-24.62-7.37-6.8-1.27-7.07-1.32-6.99-2.16.07-.75.9-.75,2.16-.75h27.96c8.77,0,11.59-12.61,13.28-20.15.48-2.16.87-3.87,1.29-4.75,1.96-4.08,6.92-3.49,7.13-3.46l-.17,1.32c-.17-.02-4.21-.49-5.75,2.71-.36.74-.74,2.47-1.19,4.47-1.78,7.93-4.75,21.19-14.58,21.19h-24.27c.45.09.92.17,1.39.26,16.28,3.04,25.7,5.44,25.7,8.73,0,.24-.07.6-.43.95-1.98,1.95-13.76,2.48-28.8,2.48Z"/>
        <g>
          <rect class="cls-8" x="88.74" y="255.31" width="8.19" height="4.91" transform="translate(15.58 -5.09) rotate(3.43)"/>
          <rect class="cls-4" x="90.47" y="253.75" width="5.11" height="1.56" transform="translate(15.39 -5.11) rotate(3.43)"/>
          <rect class="cls-5" x="90.23" y="260.1" width=".96" height="3.75" transform="translate(15.83 -4.96) rotate(3.43)"/>
          <rect class="cls-5" x="93.93" y="260.32" width=".96" height="3.75" transform="translate(15.85 -5.18) rotate(3.43)"/>
        </g>
        <g>
          <rect class="cls-8" x="215.6" y="252.81" width="8.19" height="3.58" transform="translate(-34.91 474.29) rotate(-90)"/>
          <rect class="cls-4" x="213.9" y="253.15" width="5.11" height="2.89" transform="translate(-38.14 471.05) rotate(-90)"/>
        </g>
      </g>
      <g>
        <g>
          <path class="cls-5" d="M102.53,233.89s1.74,2.01,2.41,1.59c.67-.42,2.36-4.39,2.36-4.39,0,0,.4,5.04,1.7,5.18,1.3.14,3.52-1.85,3.52-1.85l-5.26-3.65-4.75,3.12Z"/>
          <path class="cls-3" d="M102.53,233.89s1.74,2.01,2.41,1.59c.67-.42,2.36-4.39,2.36-4.39,0,0,.4,5.04,1.7,5.18,1.3.14,3.52-1.85,3.52-1.85l-5.26-3.65-4.75,3.12Z"/>
        </g>
        <path class="cls-3" d="M128.32,227.63c.52-1.6.7-3.31.54-5.03-.08-.86-.28-1.72-.61-2.55-.16-.42-.38-.82-.64-1.19-.25-.38-.55-.74-.89-1.05-.17-.16-.36-.3-.54-.44-.19-.13-.39-.24-.59-.35l-.3-.17-.32-.13c-.21-.08-.42-.19-.64-.24-.87-.26-1.78-.33-2.65-.25-1.75.15-3.39.84-4.72,1.86,1.57-.56,3.18-.91,4.75-.88.78.04,1.55.12,2.25.4.18.05.34.15.52.22l.26.11.24.15c.16.1.32.19.47.29.14.11.29.22.42.35.55.48.97,1.11,1.29,1.8.34.68.55,1.45.73,2.22.33,1.56.43,3.21.43,4.88Z"/>
        <path class="cls-3" d="M95.81,224.23c.11-1.42.3-2.81.7-4.1.4-1.28,1.04-2.46,2.03-3.17.24-.18.51-.33.79-.46.26-.11.54-.19.84-.23.61-.09,1.26-.05,1.93.04,1.33.2,2.67.6,4.04,1.04-.54-.48-1.16-.86-1.79-1.21-.32-.17-.65-.32-.99-.47-.34-.13-.69-.26-1.05-.36-.72-.2-1.48-.32-2.28-.25-.4.04-.81.12-1.2.29-.37.17-.72.35-1.04.6-.65.48-1.15,1.12-1.51,1.81-.36.69-.58,1.42-.7,2.15-.24,1.46-.16,2.94.23,4.32Z"/>
        <g>
          <path class="cls-12" d="M117.46,225.54c.02-.08.17.1.16.19-.16,2.01.03,4.33,2,5.09.06.02.05.12-.02.11-2.42-.42-2.64-3.51-2.14-5.39Z"/>
          <path class="cls-12" d="M119.53,223.52c3.56-.09,3.55,6.41.26,6.49-3.24.08-3.24-6.42-.26-6.49Z"/>
        </g>
        <g>
          <path class="cls-12" d="M103.71,223.96c0-.08-.18.08-.19.16-.12,2.01-.64,4.29-2.69,4.76-.06.01-.07.12,0,.11,2.46-.08,3.1-3.11,2.87-5.04Z"/>
          <path class="cls-12" d="M101.95,221.68c-3.51-.59-4.41,5.85-1.16,6.39,3.2.53,4.1-5.9,1.16-6.39Z"/>
        </g>
        <path class="cls-12" d="M107.17,230.91c.63.21,5.02-1.18,4.69-2.51-.36-1.44-6.54-1.78-7.31-.84-.78.93,1.96,3.14,2.62,3.36Z"/>
        <path class="cls-12" d="M112.64,234.35c-.71.51-1.43,1.01-2.23,1.4-.39.19-.84.35-1.21.35-.25.05-.46-.3-.61-.62-.29-.67-.43-1.4-.56-2.13-.13-.73-.21-1.47-.28-2.2l-.21-2.03-.61,1.97c-.19.61-.41,1.21-.63,1.82-.23.6-.47,1.2-.78,1.76-.08.14-.16.28-.26.4-.09.12-.2.25-.31.32-.07.06-.21.06-.37.04-.16-.04-.32-.1-.48-.2-.62-.37-1.12-.9-1.59-1.42.32.59.71,1.16,1.34,1.64.15.12.35.22.58.3.13.02.25.06.39.05.13,0,.32-.04.42-.1.23-.12.36-.26.49-.4.13-.14.23-.29.33-.43.4-.58.69-1.19.95-1.79.27-.61.49-1.22.7-1.84l-.82-.06c.05.76.17,1.5.31,2.25.07.37.17.75.28,1.12.12.37.24.74.44,1.11.1.18.21.37.39.55.09.09.2.18.36.25.08.04.17.06.27.08.11.02.16,0,.25,0,.61-.05,1.04-.29,1.44-.52.78-.48,1.43-1.05,1.98-1.67Z"/>
      </g>
    </g>
  </g>
  <g>
    <path class="cls-12" d="M79.16,257.42c1.33-.11,2.65-.06,3.97.02,1.32.1,2.63.23,3.94.52-1.33.11-2.65.06-3.97-.02-1.32-.1-2.63-.23-3.94-.52Z"/>
    <path class="cls-12" d="M98.35,261.63c1.27.42,2.46.97,3.65,1.56,1.17.6,2.33,1.23,3.42,2-1.27-.42-2.47-.97-3.65-1.56-1.17-.6-2.33-1.24-3.42-2Z"/>
    <path class="cls-12" d="M83.4,270.8c.64-1.17,1.39-2.26,2.18-3.32.8-1.05,1.63-2.08,2.58-3.02-.64,1.17-1.39,2.26-2.18,3.32-.8,1.05-1.63,2.08-2.58,3.02Z"/>
    <path class="cls-12" d="M75.91,249.53c1.03.33,2.04.71,3.04,1.09,1.01.38,2,.8,2.99,1.21.99.43,1.97.86,2.94,1.32.97.46,1.94.93,2.89,1.44-1.03-.33-2.04-.71-3.04-1.09-1.01-.38-2-.8-2.99-1.22-.99-.43-1.97-.86-2.94-1.32-.97-.46-1.94-.93-2.89-1.44Z"/>
    <path class="cls-12" d="M99.31,255.44c.93-.49,1.91-.84,2.89-1.15.99-.3,1.99-.56,3.04-.67-.93.49-1.9.84-2.89,1.15-.99.3-1.99.56-3.04.67Z"/>
    <path class="cls-12" d="M89.73,252.07c-.55-.87-1.04-1.76-1.53-2.65-.49-.89-.95-1.8-1.41-2.71-.45-.91-.9-1.83-1.31-2.76-.42-.93-.83-1.86-1.19-2.82.55.86,1.04,1.75,1.53,2.65.49.89.95,1.8,1.41,2.71.45.91.9,1.83,1.31,2.76.42.93.83,1.86,1.19,2.82Z"/>
    <path class="cls-12" d="M103.23,273.15c-.59-.68-1.14-1.39-1.69-2.11-.55-.71-1.06-1.45-1.58-2.19-.51-.74-1.01-1.49-1.48-2.25-.48-.76-.95-1.53-1.37-2.33.6.68,1.15,1.39,1.69,2.11.55.71,1.06,1.45,1.58,2.19.5.74,1.01,1.49,1.48,2.25.48.76.95,1.53,1.37,2.33Z"/>
  </g>
  <g>
    <polygon class="cls-15" points="282.48 106.09 227.39 106.09 223.12 68.67 278.22 68.67 282.48 106.09"/>
    <g>
      <polygon class="cls-7" points="279.48 103.58 229.82 103.58 226.12 71.18 275.79 71.18 279.48 103.58"/>
      <g>
        <g>
          <g>
            <polygon class="cls-5" points="248.81 88.23 248.01 89.17 240.2 82.43 241 81.49 248.81 88.23"/>
            <polygon class="cls-5" points="246.8 81.49 247.89 82.43 242.21 89.17 241.12 88.23 246.8 81.49"/>
          </g>
          <g>
            <polygon class="cls-5" points="265.51 88.23 264.72 89.17 256.9 82.43 257.7 81.49 265.51 88.23"/>
            <polygon class="cls-5" points="263.5 81.49 264.59 82.43 258.92 89.17 257.82 88.23 263.5 81.49"/>
          </g>
        </g>
        <polygon class="cls-5" points="239.2 94.71 238.99 93.38 269.27 93.38 269.48 94.71 239.2 94.71"/>
      </g>
    </g>
    <rect class="cls-15" x="227.77" y="103.58" width="70.88" height="2.51"/>
    <rect class="cls-2" x="243.17" y="103.58" width="61.47" height="2.51"/>
    <polygon class="cls-12" points="275.97 72.76 275.79 71.18 226.12 71.18 226.3 72.76 275.97 72.76"/>
    <g>
      <path class="cls-2" d="M230.3,71.97c.02.22.2.39.4.39s.33-.17.31-.39c-.02-.22-.2-.39-.39-.39s-.33.17-.31.39Z"/>
      <path class="cls-7" d="M228.87,71.97c.02.22.2.39.39.39s.33-.17.31-.39c-.02-.22-.2-.39-.39-.39s-.33.17-.31.39Z"/>
      <path class="cls-10" d="M227.43,71.97c.02.22.2.39.39.39s.33-.17.31-.39c-.02-.22-.2-.39-.39-.39s-.33.17-.31.39Z"/>
    </g>
  </g>
  <g class="cls-20">
    <g class="cls-19">
      <image width="800" height="800" transform="translate(399.16 -100.02) scale(.59)" xlink:href="../../../../../Users/aaman/AppData/Local/Temp/AI_28_2/Adobe/AISVG/1/Err500-32/Err500-321.png"/>
    </g>
  </g>
</svg>